<?xml version="1.0" encoding="UTF-8" standalone="no"?><!DOCTYPE svg PUBLIC "-//W3C//DTD SVG 1.1//EN" "http://www.w3.org/Graphics/SVG/1.1/DTD/svg11.dtd"><svg width="100%" height="100%" viewBox="0 0 1100 1100" version="1.1" xmlns="http://www.w3.org/2000/svg" xmlns:xlink="http://www.w3.org/1999/xlink" xml:space="preserve" xmlns:serif="http://www.serif.com/" style="fill-rule:evenodd;clip-rule:evenodd;stroke-linejoin:round;stroke-miterlimit:2;"><g><g><clipPath id="_clip1"><path d="M550,1050c276.142,0 500,-223.858 500,-500c0,-276.142 -223.858,-500 -500,-500c-276.142,0 -500,223.858 -500,500c0,276.142 223.858,500 500,500Z" clip-rule="nonzero"/></clipPath><g clip-path="url(#_clip1)"><rect x="50" y="50" width="1000" height="1000"/></g><g><path d="M84.101,638.676l-1.767,0l0.589,4.123l1.767,0.589l-0.589,-4.712Zm424.669,-305.102l0,2.356l5.89,0.589l0,-2.356l-5.89,-0.589Zm184.946,-10.602c0.589,-2.945 -0.589,-6.479 -3.534,-10.013c-14.725,-21.793 -23.56,-32.395 -26.505,-32.984c-2.356,-0 -1.767,1.178 -3.534,1.178c-2.356,-0.589 -2.356,-2.945 -4.123,-2.945c0.589,-0 -5.301,2.945 -17.67,9.424c-1.178,-1.178 -1.178,-2.356 0.589,-3.534c-7.068,2.356 -12.369,5.301 -15.903,9.424c-0.589,0.589 -1.767,2.945 -4.712,7.068c-1.767,1.767 -3.534,2.945 -5.301,2.945c-4.712,-0.589 -8.246,-1.178 -10.602,-2.356c-1.767,2.945 -2.945,5.301 -4.712,7.068c-0.589,-1.178 -1.178,-3.534 -1.178,-6.479c-0,-1.767 -1.767,-2.356 -5.301,-2.945c-2.356,0.589 -3.534,1.767 -4.123,2.356c-8.835,-1.767 -16.492,-2.945 -23.56,-4.712c-5.301,-0.589 -21.204,-0.589 -47.12,-0c-0.589,1.178 -1.767,1.767 -2.945,1.767c-1.767,-0.589 -2.945,-1.767 -2.945,-2.356c2.945,-0 -7.068,-0 -30.628,0.589c-1.767,-0 -3.534,2.945 -5.301,3.534c-2.945,-1.767 -4.712,-2.945 -6.479,-2.945c-1.767,-0.589 -13.547,2.945 -16.492,2.945c-1.178,-0 -2.945,0.589 -4.712,1.767c-2.945,1.767 -2.945,1.178 -12.958,1.767c-5.301,0.589 -8.246,0.589 -9.424,0.589c-1.767,-0.589 -2.945,-1.767 -2.945,-4.123c-2.945,2.356 -4.712,4.712 -5.89,6.479c-5.301,0.589 -7.068,3.534 -7.068,3.534c-3.534,-0.589 -5.89,-1.767 -7.068,-2.356c-2.356,-0 -10.602,6.479 -12.958,6.479c-1.767,-0.589 -2.356,-0.589 -1.767,-1.178c0.589,-1.767 1.178,-3.534 1.767,-4.712l-2.945,-0c-1.767,0.589 -2.356,0.589 -2.945,0.589c0,2.356 -0.589,3.534 -1.178,3.534c-1.767,0 -2.356,-1.767 -4.712,-1.767c-1.767,-0 -8.246,5.301 -10.602,5.89c2.356,0 3.534,1.178 3.534,3.534c-2.945,2.356 -5.89,4.123 -8.835,5.301l-1.178,12.369c0.589,0.589 1.767,0 2.356,-0.589c1.767,6.479 1.767,14.725 0.589,24.738c-0,2.945 -2.356,8.835 -2.356,11.191c1.767,2.945 2.945,4.123 3.534,4.123l2.356,-2.356l1.767,2.356c-2.945,2.356 -4.123,5.301 -4.123,8.246c2.356,1.178 3.534,2.945 3.534,5.89c1.767,1.178 2.945,2.356 3.534,2.945c2.945,7.657 4.123,11.78 4.123,11.78c-0.589,2.945 -1.767,5.301 -2.945,6.479c5.301,4.123 9.424,10.013 11.191,18.259c15.903,15.903 27.683,28.861 35.34,38.285c9.424,-1.767 14.725,-5.301 15.314,-10.602c-0,-0.589 -1.178,-4.712 -2.945,-11.78c-1.767,-7.068 -2.356,-11.78 -2.945,-14.725c-1.767,-12.369 -3.534,-21.793 -5.301,-28.272c-0,-7.068 0.589,-14.136 4.123,-14.136c-0,-1.767 -0.589,-4.712 -1.767,-8.835c6.479,-7.657 12.369,-12.958 17.67,-16.492c2.945,-1.178 5.301,-1.767 6.479,-1.767c6.479,-4.123 11.191,-6.479 12.958,-7.068c4.123,-1.767 6.479,-2.945 5.89,-2.945c-3.534,-4.123 -5.301,-6.479 -5.301,-7.068c5.301,-2.945 12.958,-4.712 38.285,-11.191c0.589,-1.767 1.767,-3.534 4.123,-5.301l5.89,1.767c1.767,-2.945 2.945,-5.301 4.123,-6.479c0.589,1.178 1.178,1.767 0.589,2.356c-0.589,-0 2.356,-0.589 8.835,-2.356c6.479,-0.589 11.78,-0 14.725,0.589c8.835,-1.767 12.958,-2.356 12.369,-2.356c0.589,-1.767 0.589,-2.945 1.178,-3.534c1.767,1.767 2.356,2.356 2.356,2.945c-0,-2.945 1.767,-4.123 4.712,-3.534c1.767,0.589 2.945,1.178 2.945,1.767c-1.178,1.178 -1.178,2.356 -0.589,2.945c0.589,-1.178 1.178,-1.767 1.767,-2.356c2.356,1.767 4.123,3.534 4.712,4.123c2.356,0.589 2.356,-1.767 4.712,-1.767c2.945,0.589 5.89,2.945 8.246,7.068c-2.945,1.767 -4.712,3.534 -6.479,5.301l-0.589,4.712c1.767,-0.589 2.356,-0.589 2.945,-1.178c2.356,0.589 3.534,2.356 2.945,5.89c-2.945,1.767 -8.246,8.246 -10.602,10.602c1.767,-1.178 2.356,-1.178 2.356,0.589c-0,1.178 -0.589,2.356 -1.178,3.534c-5.89,11.191 -10.602,20.026 -13.547,25.916l2.945,-2.945c1.767,5.301 -2.356,10.013 -4.712,14.136l2.945,-2.356c1.767,1.178 2.945,1.767 3.534,2.356l-0,4.712c-1.767,0.589 -2.945,1.178 -3.534,1.767c-1.767,-1.178 -3.534,-2.945 -4.123,-4.712c-8.835,26.505 -12.958,41.819 -12.958,45.942l-1.178,10.013c1.767,0 2.945,0.589 3.534,1.178c-1.767,1.767 -3.534,2.945 -4.123,3.534c-2.945,9.424 -4.123,14.725 -4.712,15.314c2.945,0.589 4.123,0.589 4.123,0.589c0.589,-2.945 1.767,-6.479 3.534,-9.424l2.356,2.356l-0.589,7.068c-2.356,4.712 -3.534,1.767 -4.123,14.136c-0,4.712 -0.589,8.246 -2.356,10.602c0.589,0.589 0.589,4.123 -0,10.602c-0.589,1.767 -1.178,3.534 -2.356,4.123c-2.356,8.835 -5.301,13.547 -8.835,14.136c-0,3.534 -0.589,5.301 -1.178,5.89c2.945,-1.767 4.712,-3.534 5.301,-4.712l1.178,2.356l-5.301,10.602c-0.589,-0.589 -1.178,-1.178 -2.356,-1.178c1.767,1.767 2.945,3.534 3.534,4.123c1.767,-2.945 3.534,-4.712 4.123,-4.712c1.178,1.767 1.767,2.945 1.767,3.534c-0.589,2.356 -3.534,8.246 -4.123,8.835l-0,10.602c3.534,-2.356 5.89,-4.123 7.068,-5.89c1.767,2.945 2.945,4.712 3.534,5.89c-1.767,0.589 -4.123,1.178 -5.89,0.589c-0.589,7.068 -6.479,8.246 -6.479,8.246c-0.589,2.356 -1.767,5.301 -4.712,9.424c2.356,-0.589 4.123,-2.356 5.89,-5.301l1.767,5.301c-0,-0.589 0.589,-1.178 1.767,-1.178c2.356,0 8.835,2.945 10.602,2.945c0.589,1.767 0.589,2.945 0.589,3.534c0.589,-1.767 1.767,-2.356 2.356,-2.945c1.767,2.356 2.945,4.123 3.534,5.301l4.123,0c-0,-1.767 -1.767,-4.712 -1.767,-5.301l3.534,-3.534c-1.767,-2.356 -2.945,-4.123 -3.534,-5.301c-0.589,0.589 -1.767,0.589 -2.356,0.589c-1.767,-0.589 -2.945,-1.767 -2.356,-2.356c-2.356,0.589 -3.534,0.589 -4.123,1.178l1.178,-6.479c1.767,0.589 2.356,1.767 2.945,2.945c2.356,0 3.534,-1.178 5.89,-1.178c2.356,0.589 2.356,4.123 2.945,4.123c2.356,-4.712 2.945,-4.123 -1.178,-13.547l2.945,-2.356c2.945,-6.479 4.712,-12.958 5.301,-20.026c0.589,-0.589 1.767,-0.589 2.356,-0c-0.589,-4.123 -0.589,-10.602 1.178,-18.259c0.589,-5.301 0.589,-8.835 0.589,-11.78c1.767,-3.534 2.945,-6.479 4.123,-8.246c-1.178,-1.767 -2.356,-2.945 -3.534,-3.534c2.945,-0.589 4.123,-2.945 4.123,-5.89l-0,-3.534c-0.589,-1.767 -0.589,-2.945 -0.589,-3.534c-0,-2.945 1.178,-4.712 3.534,-5.89c0.589,1.178 1.178,2.945 0.589,5.301c12.958,-50.065 20.615,-78.337 22.971,-84.816c4.123,-11.191 10.013,-23.56 17.67,-37.107c6.479,-10.013 11.191,-17.081 15.314,-22.382c13.547,-9.424 20.615,-14.136 21.204,-13.547c2.945,0.589 4.712,1.767 5.89,2.945c1.767,-0 12.958,-5.301 14.725,-5.301c2.356,0.589 11.191,5.89 13.547,6.479c4.123,0.589 5.89,-1.767 6.479,-6.479Zm-157.263,160.208l-4.123,10.602l1.767,-0l4.123,-10.013l-1.767,-0.589Zm29.45,50.065l-0,2.945l1.767,0.589l0.589,-3.534l-2.356,-0Zm-36.518,31.806l-1.767,4.123l1.767,0.589l1.767,-4.712l-1.767,-0Zm-2.945,-7.657c-2.945,1.767 -4.712,4.123 -5.301,7.068c-0,1.767 0.589,2.945 1.767,4.712c-0,-1.767 0.589,-2.356 1.178,-2.945c-0.589,-1.178 -0.589,-2.356 -0.589,-2.945c0.589,-2.945 1.178,-4.712 2.945,-5.89Zm-12.958,46.531l-0,2.945l1.767,-0l0.589,-2.945l-2.356,-0Zm23.56,52.421c-0.589,1.767 -1.767,2.356 -2.945,2.945c-1.178,0.589 -1.767,-0 -2.356,-1.178c-1.178,4.123 -2.356,7.068 -2.945,9.424c3.534,-4.712 6.479,-8.246 8.246,-11.191Zm-238.545,-229.71c-1.178,-0.589 -2.356,-1.178 -2.945,-1.767c-0.589,-0.589 -2.356,4.123 -2.945,4.712c2.356,-1.178 4.123,-2.356 5.89,-2.945Zm209.684,219.108l-1.767,3.534l1.178,1.178l2.356,-4.712l-1.767,-0Zm-238.545,-216.752l-7.068,4.712l0.589,1.767l7.068,-4.712l-0.589,-1.767Zm5.89,5.89c-4.123,1.767 -12.369,4.123 -14.136,4.123c-1.178,2.356 -2.356,4.123 -2.945,4.712c1.178,0.589 2.356,0.589 2.945,1.178c1.767,-2.356 2.945,-3.534 2.356,-3.534c1.178,1.767 2.356,2.356 4.123,2.356c1.767,-2.945 2.945,-4.712 4.123,-4.123c1.767,1.767 2.945,2.356 3.534,2.356c-0.589,-0.589 -0.589,-2.945 -0,-7.068Zm-18.259,5.89c-1.767,-0.589 -2.356,-1.178 -2.945,-1.767c-0.589,2.945 -1.178,5.301 -2.356,7.068c2.356,-1.767 4.123,-3.534 5.301,-5.301Zm233.833,244.435l-1.767,2.945l1.767,0.589l1.767,-2.945l-1.767,-0.589Zm-267.406,-244.435l-3.534,2.945l1.178,1.178l3.534,-2.356l-1.178,-1.767Zm25.916,2.356c-2.356,-1.767 -3.534,-4.123 -2.945,-8.246c-2.945,2.945 -4.712,5.301 -5.301,7.068c-4.123,1.767 -6.479,3.534 -8.246,5.301c-1.178,-1.767 -1.767,-2.945 -1.767,-3.534c-0,4.123 -7.657,1.767 -5.89,4.712c-1.178,-1.178 -1.767,-1.767 -1.767,-2.356c-2.356,-0 -8.835,4.123 -10.602,4.123c-2.356,-0.589 -3.534,-1.767 -3.534,-2.356c2.945,-1.178 5.89,-2.356 7.657,-2.945c-2.945,-0 -5.301,0.589 -7.068,1.178c-2.945,-0 -4.712,0.589 -6.479,2.356l-0.589,4.123c2.356,-1.767 4.123,-2.945 5.301,-4.123c0.589,1.767 0.589,2.945 1.178,3.534c-4.123,2.945 -7.068,4.712 -8.835,5.301c-0.589,-0.589 -1.178,-1.767 -1.178,-2.945c-0,1.767 -1.178,2.945 -3.534,2.945l-1.767,-2.356c0.589,-2.945 1.178,-4.712 1.767,-5.301c3.534,0.589 5.301,0.589 5.89,-0c-0.589,-0 -4.712,0.589 -12.369,2.356c1.767,1.767 2.356,3.534 2.356,6.479c-0,2.945 -0.589,4.712 -2.356,5.301c-1.178,-4.712 -2.945,-7.657 -4.712,-8.835c-0,2.356 -0.589,3.534 -2.356,3.534c-2.356,-0.589 0.589,-2.356 -1.767,-2.945c-1.767,0.589 -2.945,1.767 -2.945,2.356c-1.767,-0 -2.945,-0.589 -2.945,-1.178c0.589,4.712 -1.178,7.068 -4.712,7.657c-0.589,-1.178 -1.178,-1.767 -1.178,-2.356c-1.178,-0 -1.767,0.589 -2.356,2.356c-0.589,2.945 -0.589,4.123 -0.589,4.712c-4.123,-4.123 -1.178,-7.657 -4.712,-7.657c-7.657,6.479 -12.369,9.424 -14.136,8.835c-6.479,7.657 -14.136,11.78 -22.971,12.369c-5.301,7.068 -11.191,12.369 -17.081,16.492c-1.178,2.945 -2.356,4.712 -4.123,6.479c3.534,-1.767 6.479,-2.945 8.246,-4.123l2.356,-1.767c1.178,1.767 1.767,2.945 2.356,3.534c4.123,-2.945 9.424,-12.369 11.191,-12.958c-1.767,-0.589 -2.356,-1.178 -2.356,-2.356l1.767,-1.767c2.945,7.657 4.712,11.191 4.712,11.78c-1.767,4.712 -4.123,8.246 -5.89,10.602l2.945,2.945c-0,-1.767 -0,-2.945 -0.589,-3.534c2.356,-0 4.123,-0 4.712,0.589c1.767,-0 2.356,-0.589 1.767,-1.767l-0,-3.534c4.123,-1.767 6.479,-3.534 8.246,-4.712c1.178,1.178 1.767,1.767 1.767,2.356c1.178,-0 5.301,-2.356 11.78,-6.479c2.945,-4.123 5.301,-7.068 7.068,-10.013c0.589,0.589 1.178,2.356 0.589,4.712c2.356,-0.589 10.013,-7.068 11.78,-7.068c1.767,0.589 1.767,1.767 1.178,2.356c2.945,-0 8.246,-13.547 18.259,-12.958c1.767,-0 2.356,0.589 1.767,1.178c-0.589,1.178 -1.178,2.356 -2.356,3.534c-1.767,-0.589 -2.945,-0.589 -3.534,-0.589c0.589,-0 1.178,1.178 0.589,2.945c2.945,-1.178 5.301,-3.534 7.657,-7.657l-3.534,-3.534c0.589,-0.589 1.178,-0.589 1.767,-0.589c2.356,2.356 4.123,4.123 4.712,5.301c5.301,-4.712 14.725,-10.013 27.094,-15.903c0.589,-3.534 1.178,-6.479 2.945,-9.424c0.589,0.589 1.178,1.178 0.589,1.767c-0.589,-1.767 -1.178,1.767 -1.767,9.424c3.534,-2.945 5.89,-4.712 6.479,-4.712c1.767,0.589 2.945,1.178 2.945,1.767c2.356,-0 2.356,-5.301 2.945,-5.89c0.589,-0 2.945,1.178 3.534,1.178c-0,-3.534 1.178,-5.89 2.945,-7.068Zm178.467,285.665l-1.767,0.589l1.178,2.945l1.767,0.589l-1.178,-4.123Zm122.512,-125.457c-1.178,-2.945 -1.767,-5.301 -1.178,-8.246c-0.589,6.479 -1.178,14.136 -5.89,14.136c-0.589,-0 -1.767,-0 -2.945,-0.589c2.945,-5.301 3.534,-7.068 -1.767,-2.945c-0.589,-2.356 -0.589,-4.123 -0.589,-4.712c-0.589,-0.589 -2.356,2.945 -2.945,-7.068c-0,-4.123 -0.589,-7.068 -1.767,-9.424c-2.945,5.89 -5.89,9.424 -8.246,10.602c-0.589,-2.945 -1.178,-4.712 -1.767,-6.479c0.589,0.589 1.178,1.178 0.589,1.767c-1.767,4.123 -3.534,7.657 -4.123,9.424c-2.356,8.246 -4.123,15.314 -5.89,21.204l-0.589,4.123c4.123,-4.123 6.479,-8.246 8.246,-11.191c0.589,0.589 1.178,0.589 1.178,1.178l-0.589,7.657c-4.123,3.534 -7.657,5.89 -10.602,7.068c1.178,-0.589 2.945,0.589 4.712,2.356c-1.178,1.178 -2.945,1.767 -5.89,1.178c-0.589,4.123 -1.178,7.657 -1.767,10.602l4.123,-4.123l1.767,1.767c-1.178,1.767 -2.356,5.89 -2.945,11.78c-0.589,4.123 -2.356,7.068 -5.301,7.657c-1.767,-2.945 -2.356,-5.89 -1.767,-8.835c-0.589,5.301 -1.178,8.835 -1.178,11.191l-2.945,-1.767c-1.767,1.767 -2.356,2.945 -1.767,4.712c0.589,0 1.767,-0.589 3.534,-2.356c0.589,0.589 1.178,1.178 0.589,1.767c-1.178,3.534 -2.356,7.068 -3.534,10.013c-1.767,4.123 -4.123,6.479 -7.657,6.479c2.945,0.589 5.301,0.589 6.479,-0c0.589,0.589 1.178,1.178 0.589,1.767c-4.123,8.835 -7.657,8.835 -15.314,18.259c-2.356,2.945 -5.301,4.123 -9.424,2.945c-0.589,2.945 -0.589,5.301 -0.589,5.89c-1.767,-0.589 -2.945,-0.589 -3.534,-1.178c2.356,1.767 4.123,2.945 5.89,3.534c-2.945,1.767 -5.301,4.712 -7.657,8.835c-0.589,2.945 -0.589,5.301 -0.589,6.479c-2.945,-1.178 -4.712,-2.356 -5.89,-2.945c-1.767,-0 -4.712,2.945 -6.479,2.945c-6.479,-0.589 -8.835,-0.589 -7.068,-1.178c-2.356,0.589 -5.301,4.123 -7.657,4.123c-1.767,-0.589 -2.356,-1.178 -2.356,-1.767c0.589,4.123 -2.356,7.657 -8.835,10.013c-0.589,-0.589 -1.178,-1.767 -1.178,-3.534c-1.178,1.767 -2.356,3.534 -2.945,4.123c-3.534,0.589 -6.479,0.589 -8.246,1.178c-11.78,-0.589 -22.382,-1.178 -31.806,-1.767c-2.356,0.589 -3.534,1.178 -3.534,2.356c-2.356,-1.178 -3.534,-2.356 -4.123,-2.945c2.945,2.945 5.301,4.123 7.068,4.712l-0,3.534l-2.356,1.767c-0.589,-1.767 -1.178,-2.945 -1.178,-3.534c1.767,-0 -4.123,-0.589 -17.67,-1.767c-2.945,0.589 -4.712,1.178 -5.89,1.767c-2.945,-1.767 -4.712,-2.945 -5.89,-4.123c-4.123,-0.589 -7.068,-0.589 -8.835,-0.589c1.178,1.767 1.178,2.945 -0,3.534c-1.178,-0.589 -2.945,-1.178 -4.712,-1.767c-4.123,-0.589 -6.479,-1.178 -8.246,-1.767c-3.534,-1.178 -5.89,-2.356 -7.657,-2.945c-11.78,-1.178 -30.039,-5.301 -54.777,-11.78c-1.767,-1.767 -3.534,-2.945 -5.301,-3.534l-4.123,-0l-0.589,6.479c4.123,3.534 7.068,5.89 8.835,7.068c-0,-2.945 1.178,-5.301 2.945,-7.068l1.178,0.589c4.712,1.767 7.657,3.534 8.246,5.301c0.589,5.301 0.589,7.068 1.178,5.301c-0.589,1.767 -1.767,2.356 -2.356,2.356l-4.712,-0.589c-1.767,-2.356 -2.945,-3.534 -2.945,-2.945l2.945,-2.945c-2.356,1.767 -4.123,2.945 -4.712,4.123c-2.945,-0.589 -11.78,-1.767 -14.725,-3.534c0.589,2.356 1.178,4.123 1.767,5.301c4.123,2.945 6.479,4.712 7.068,6.479c-4.123,0.589 -15.314,4.123 -17.67,4.123c-4.123,-0.589 -6.479,-0.589 -5.89,-0.589c4.123,1.767 7.657,3.534 10.013,4.712c1.767,-0 2.356,2.945 4.712,2.945c2.945,-0 5.301,1.178 6.479,2.945c1.767,-1.767 3.534,-2.356 5.301,-2.356c1.767,4.712 2.356,7.068 1.767,7.657c-2.356,-2.945 -7.657,-4.123 -15.314,-4.712c-1.767,-0.589 -2.945,-1.178 -2.945,-1.767c-1.767,0.589 -2.945,0.589 -2.356,1.178c-1.767,-1.178 -2.945,-2.356 -2.945,-2.945c-0.589,2.356 -1.767,3.534 -4.712,3.534c-1.767,-0 -0,-1.178 -1.767,-1.767c-0.589,0.589 -1.178,1.767 -1.767,2.356c0.589,1.767 0.589,2.356 0.589,2.945l-4.712,-0.589c-4.712,-1.767 -8.246,-2.945 -11.191,-4.123c5.301,5.301 12.958,10.013 22.971,13.547c5.89,1.767 11.78,4.123 18.259,5.89c3.534,1.767 5.89,3.534 7.657,4.712c17.081,1.767 33.573,3.534 48.298,5.301c2.945,0.589 5.301,1.178 7.068,1.767l1.767,2.356c-0.589,0.589 -1.178,1.767 -1.178,2.945c0.589,-1.178 2.356,-0.589 4.123,1.178c-0,-0.589 -0.589,-1.178 -1.767,-2.945l3.534,-0c2.945,5.89 4.712,10.013 6.479,12.369c1.178,-1.178 1.178,-2.356 -0,-4.123l2.356,-1.767l1.767,1.767c0.589,-2.356 1.178,-5.89 1.767,-5.89c4.123,2.356 7.068,3.534 8.835,4.123c-0,4.123 -2.945,0.589 -8.246,0.589c-0.589,2.945 -0.589,4.712 -1.178,5.301c9.424,-0.589 16.492,-2.356 20.615,-4.712c2.356,-0 5.301,2.356 7.068,2.356l1.178,-0.589c2.356,-0 5.89,-3.534 5.89,-3.534c-0,2.356 1.178,3.534 4.123,4.123c0.589,-2.945 1.178,-5.301 1.767,-5.89c7.068,2.945 2.945,8.246 15.314,8.835c2.356,-0 8.835,-5.301 10.602,-5.301c2.356,1.178 3.534,2.356 3.534,2.945l4.123,-3.534c1.767,1.178 2.945,1.767 4.123,1.767c8.835,0.589 21.204,-1.178 38.285,-6.479c4.123,-2.356 6.479,-4.123 8.246,-5.89c4.123,-1.767 7.657,-2.945 10.013,-3.534c5.89,-4.123 10.013,-7.657 12.369,-10.602c-2.356,-0 -4.123,-0 -4.712,0.589l-1.178,-2.356c0.589,-0.589 0.589,-1.178 0.589,-1.178c1.767,-0 2.945,0.589 3.534,1.178c1.767,-4.123 3.534,-7.657 5.301,-9.424c4.123,-4.123 7.068,-7.657 10.013,-10.013c4.123,-8.835 7.657,-17.67 11.78,-26.505c6.479,-14.136 10.013,-24.738 10.602,-31.806c-0,-1.767 -1.178,-4.123 -2.945,-5.89c-1.767,3.534 -3.534,6.479 -4.123,8.246c-2.356,-1.767 -4.123,-2.945 -4.712,-4.123c-0,2.945 -0.589,5.301 -1.767,5.89c-1.178,-0.589 -1.767,-1.178 -1.767,-2.945l-2.945,2.356l-0,-2.945c3.534,-4.123 5.89,-6.479 7.657,-6.479c-1.767,-2.945 -2.945,-4.123 -3.534,-4.123l2.356,-1.767c1.178,1.767 2.356,2.356 2.945,2.356l-0,5.301c1.767,-2.945 2.356,-5.301 2.945,-7.068c1.767,1.767 2.945,2.945 3.534,4.123c1.767,-1.767 3.534,-2.945 5.301,-2.356c-0.589,-1.178 -1.178,-2.356 -1.178,-3.534c-0,-2.945 4.123,-9.424 4.123,-11.78c-2.356,4.123 -2.945,4.712 -3.534,5.301c-0.589,0.589 -1.767,0.589 -2.356,-0c-2.356,-0 -1.767,1.178 -4.123,1.178c-2.356,-1.178 -4.123,-2.356 -4.712,-3.534c0.589,-1.767 0.589,-4.123 -0.589,-7.068l2.356,-2.945c-2.356,-0 -3.534,-0 -4.123,0.589c0.589,0.589 0.589,-1.767 0.589,-8.246c-1.767,4.712 -3.534,7.657 -5.301,8.246l-0.589,-4.123c1.178,-0.589 1.767,-1.178 2.356,-1.178c2.356,-7.657 4.123,-14.136 5.89,-18.259c-0.589,-1.178 -0.589,-1.767 -0.589,-2.356c1.178,-1.767 1.767,-2.945 2.356,-3.534c2.356,5.301 4.123,7.657 4.712,8.246c-0,-1.178 0.589,-1.767 1.767,-1.767c2.356,2.356 3.534,4.123 4.123,4.712c-1.767,2.945 -2.945,5.301 -3.534,6.479c1.767,-1.178 3.534,-2.356 4.712,-2.945c-0,-1.178 0.589,-3.534 1.767,-6.479c9.424,-2.945 14.136,-5.89 14.725,-15.314c-0,-2.356 -4.123,-7.068 -4.712,-7.068c1.767,-1.767 2.356,-2.945 2.356,-4.123c-6.479,8.835 -11.78,15.314 -14.725,18.848l-1.767,-1.767c-0,-0.589 0.589,-1.178 2.356,-1.178c-0.589,-0 -0.589,-1.767 -0,-5.301c-1.767,3.534 -3.534,6.479 -4.123,8.246c-0.589,-4.712 -1.178,-8.246 -1.178,-10.602c-0,-2.356 7.068,-10.013 9.424,-10.602l-0,5.89c1.767,-0.589 6.479,-14.136 11.78,-14.725c0.589,0.589 1.178,2.356 1.178,4.712c2.945,-3.534 4.123,-7.068 2.945,-11.191Zm-442.928,-86.583l-1.767,2.945l1.767,1.178l1.767,-2.945l-1.767,-1.178Zm-10.602,-2.945l-1.767,2.945l1.767,0.589l1.767,-2.945l-1.767,-0.589Zm10.602,11.191l-2.945,1.178l-0,1.767l3.534,-1.178l-0.589,-1.767Zm157.263,184.946c-3.534,1.178 -6.479,1.767 -8.246,2.356c2.945,1.178 5.301,1.767 7.068,1.767c0.589,-1.178 0.589,-2.356 1.178,-4.123Zm9.424,26.505l-0,4.712l1.767,-0l0.589,-4.712l-2.356,-0Zm-204.383,-202.027l-3.534,6.479l1.767,0.589l2.945,-6.479l-1.178,-0.589Zm185.535,189.069c-4.123,-2.945 -7.657,-4.712 -10.013,-6.479l-0.589,4.712c-1.767,0.589 1.767,1.178 10.602,1.767Zm63.612,70.68l-1.178,1.767l2.945,1.767l1.178,-1.767l-2.945,-1.767Zm-70.68,-68.324c-2.945,-1.767 -5.301,-3.534 -8.246,-5.89c1.767,4.123 2.945,6.479 4.712,6.479c1.767,-0 2.945,-0 3.534,-0.589Zm76.57,75.981c-4.123,-2.356 -7.068,-2.945 -9.424,-2.356c0.589,1.767 1.178,2.945 1.178,3.534c1.767,-0 6.479,-1.178 8.246,-1.178Zm-77.748,-95.418c-0.589,-0 -1.178,1.767 -3.534,1.767c-3.534,-1.767 -5.89,-3.534 -7.657,-5.301c-8.835,-1.178 -15.903,-1.767 -20.615,-1.767l-2.945,-0.589c-2.945,-0 -5.301,-0 -6.479,0.589c-2.356,-0 -3.534,-1.178 -3.534,-2.945c-0,1.178 -0.589,1.767 -1.767,1.178c-2.945,-0 -5.89,-2.356 -8.835,-6.479c1.178,-1.767 1.767,-4.123 1.178,-5.89l-5.89,0.589c-0,0.589 1.178,1.767 3.534,4.123l-4.123,0.589c-2.945,-2.945 -4.123,-5.301 -4.123,-7.068c0.589,-2.356 0.589,-4.123 1.178,-4.712c-0,0.589 -1.178,0.589 -2.945,0.589c-5.301,-0.589 -5.301,-4.712 -5.89,-7.657c-4.712,0.589 -7.657,-1.178 -9.424,-4.712l-3.534,1.767c-0.589,-1.767 -0.589,-3.534 -0,-4.712c-1.767,2.945 -4.712,4.712 -9.424,4.123c-1.767,-0 -2.356,-2.945 -0.589,-8.835c1.178,1.178 1.767,1.767 2.356,1.767l-3.534,-5.301c-7.068,-1.767 -14.136,-7.068 -21.204,-15.314c0.589,0.589 0.589,1.767 -0.589,2.356c-1.767,-2.356 -2.356,-5.301 -2.945,-8.835c-2.945,-3.534 -5.301,-6.479 -5.89,-8.835c-2.945,-2.356 -5.89,-3.534 -7.657,-4.123c-9.424,-13.547 -14.725,-20.615 -16.492,-21.793c-0,1.767 -0.589,2.356 -1.767,2.356c-1.767,-0.589 -2.945,-1.178 -2.356,-1.767c-6.479,-8.246 -11.191,-14.136 -15.314,-18.259c2.945,10.602 4.712,16.492 4.712,18.259c1.767,-0.589 2.945,-1.178 3.534,-1.767c4.123,8.835 7.657,15.314 10.602,19.437c-2.356,0.589 -4.123,1.178 -4.712,1.767c-0.589,-1.178 -1.178,-1.767 -0.589,-2.356c-5.301,-0.589 -4.123,-11.78 -8.835,-14.136c-0.589,3.534 -0.589,6.479 -0.589,8.246c-1.767,-1.767 -2.356,-2.356 -2.945,-2.356l0.589,-10.013c-1.767,-0.589 -2.945,-1.767 -3.534,-2.356c-1.767,-0.589 -2.945,-1.767 -2.945,-2.356c1.767,-1.767 2.945,-2.945 4.123,-3.534l-2.945,-2.945c-1.178,1.178 -1.767,2.945 -1.767,4.712c-0,2.945 1.178,7.068 4.123,12.369c2.945,6.479 4.123,10.013 4.712,11.191c1.767,-1.767 2.356,-2.945 2.945,-3.534c0.589,1.178 1.178,1.767 1.178,2.356l-1.767,3.534c2.945,5.301 5.89,9.424 8.835,11.78c-0,14.725 -0,20.615 0.589,17.67c2.945,4.712 5.89,8.246 7.657,10.602c4.123,1.178 7.068,2.356 8.835,2.945c0.589,1.178 1.178,2.356 1.178,2.945c13.547,7.657 23.56,12.958 30.039,15.903l-0.589,4.123c-6.479,-2.356 -11.78,-4.712 -14.725,-7.657c-0.589,0.589 -2.945,4.123 -3.534,4.712c-0,-7.068 -10.602,-9.424 -17.67,-12.369c0.589,2.356 0.589,4.123 0.589,5.89c10.013,-0 13.547,6.479 17.67,11.191c5.89,4.123 10.013,5.89 12.369,5.89c2.945,-0 4.712,-0 5.89,-0.589c1.178,0.589 1.178,1.178 0.589,2.945c-0.589,0.589 -0.589,0.589 -1.178,-0c-0.589,-0.589 -1.178,-0 -1.178,1.178c1.767,4.123 3.534,5.89 5.301,5.89c1.767,-2.945 2.945,-4.712 3.534,-6.479c-0,1.767 -0.589,-2.945 -2.356,-13.547c-2.945,-0.589 -4.712,-1.767 -5.89,-4.712c1.178,-0.589 2.356,-0 4.123,1.767l1.767,-1.767c1.767,-3.534 4.123,-5.301 5.89,-5.89c2.356,1.178 3.534,2.356 4.123,2.945c-2.945,2.356 -4.712,4.123 -6.479,5.89c1.767,2.945 1.767,5.89 0.589,8.835c1.767,-1.767 2.945,-2.945 3.534,-4.123c3.534,0.589 6.479,0.589 8.246,1.178c4.123,4.123 7.657,7.068 9.424,10.013c1.767,-0.589 2.945,-0.589 2.945,-1.178c4.712,1.767 8.246,4.123 11.191,5.89c-1.767,-2.945 -1.767,-4.712 -0,-5.89c1.178,2.945 2.945,4.712 4.712,5.89c-0,1.767 -0.589,4.123 -2.356,6.479l-3.534,-0.589c-4.123,-5.301 -7.657,-7.657 -9.424,-7.657l-3.534,-0.589c1.767,2.945 4.123,6.479 7.068,10.602c-1.767,0.589 -4.123,1.178 -8.246,0.589c-0,1.178 0.589,2.945 2.356,4.712c2.945,-1.178 6.479,-1.178 9.424,-0.589c0.589,-1.767 1.178,-2.945 1.767,-3.534c2.945,1.767 5.301,3.534 7.068,4.123l2.945,-1.767c2.945,1.178 4.712,2.356 5.89,2.945c1.767,-2.945 3.534,-4.123 6.479,-3.534c-0,-0.589 -0.589,-1.767 -1.178,-3.534c-1.767,0.589 -3.534,0.589 -4.712,1.178c-2.356,0.589 -3.534,1.178 -4.123,1.767l-2.356,-2.356c-1.767,-0.589 -2.945,-1.767 -2.945,-4.123c4.123,-0 5.301,2.945 7.657,2.945c2.945,-0.589 4.123,-1.767 4.712,-2.945c3.534,1.178 5.89,2.356 7.657,3.534c-2.945,-1.767 -4.123,-2.945 -4.123,-4.712l2.356,-2.356c4.712,4.123 8.246,6.479 11.191,7.068c1.178,1.767 1.178,2.945 -0,4.123c-3.534,-2.356 -5.301,-2.945 -5.301,-1.178c1.178,1.767 3.534,2.356 7.068,1.767c0.589,-1.178 1.767,-1.767 4.123,-1.767c4.712,0.589 7.068,1.178 6.479,1.767c0.589,-1.767 -0,-2.945 -0.589,-3.534c-0.589,-0.589 -1.767,-0.589 -2.945,-0c-1.767,0.589 -2.356,0.589 -2.945,0.589c-1.767,-1.178 -2.945,-2.356 -2.356,-2.945l-0,-3.534l1.178,-0.589c10.013,2.356 17.081,4.712 21.204,6.479c-0,-0.589 2.945,-3.534 2.945,-4.123Zm-43.586,-14.725c-3.534,-0.589 -5.89,-1.178 -6.479,-2.945c1.767,4.123 -1.178,7.068 5.89,7.068l0.589,-4.123Zm-140.182,-138.415l-3.534,5.301l1.767,0.589l2.945,-5.301l-1.178,-0.589Zm160.797,167.276l-0,1.767l7.657,3.534l0.589,-1.767l-8.246,-3.534Zm-133.703,-130.758c-2.356,-5.301 -3.534,-7.657 -3.534,-6.479c0.589,4.123 1.178,7.657 1.178,9.424c1.178,-1.178 1.767,-2.356 2.356,-2.945Zm157.852,146.072c-2.945,-1.178 -6.479,-2.945 -10.013,-5.301l-4.123,3.534c-1.767,-2.356 -3.534,-4.123 -4.123,-5.301c-2.945,1.178 -5.89,2.356 -7.657,2.945c-1.767,-0.589 -5.301,-4.123 -5.89,-4.123c-0.589,0 -1.178,0.589 -1.178,2.356c1.767,0.589 3.534,1.178 4.712,1.767l4.712,5.301c-0,-1.767 0.589,-2.945 1.178,-3.534c1.767,1.767 3.534,2.945 4.123,3.534c-0.589,1.767 -0.589,3.534 -1.178,4.712c4.123,-2.945 6.479,-4.712 7.657,-6.479c2.945,1.767 4.123,2.945 3.534,4.123c-0,-1.767 1.178,-2.945 2.945,-4.712c1.767,0.589 3.534,1.178 5.301,1.178Zm-176.7,-162.564c-1.767,4.123 -2.945,6.479 -4.123,7.068c-0.589,-0.589 -0.589,-1.767 -0,-3.534c-1.767,4.123 -1.178,7.068 0.589,9.424c2.356,-2.945 3.534,-7.657 3.534,-12.958Zm223.231,224.998c-5.301,-1.767 -10.013,-4.123 -14.725,-7.068c-2.356,1.767 -4.123,3.534 -4.712,4.712c-1.767,-1.767 -2.356,-3.534 -2.945,-4.123l-0,5.301l-4.712,-0.589c1.767,1.178 3.534,1.767 5.301,2.356c2.356,0.589 5.89,-4.123 7.657,-4.123c5.301,1.178 10.013,2.356 14.136,3.534Zm-28.861,-20.026c-1.767,-0.589 -5.89,-1.767 -11.191,-4.712l5.301,0.589c1.767,-2.356 2.356,-3.534 1.767,-3.534c-0.589,1.767 1.178,4.712 4.123,7.657Zm-100.13,-83.049c-2.356,0.589 -4.123,0.589 -5.89,1.178c1.767,2.945 3.534,4.712 4.712,5.89c0.589,-2.945 1.178,-5.301 1.178,-7.068Zm-41.23,-28.861c-0,2.356 -1.767,3.534 -2.356,4.123c-0,-1.178 -0.589,-2.356 -2.356,-4.123l4.712,-0Zm381.083,-340.442c-1.178,1.178 -1.767,2.356 -1.767,2.945l-5.301,-0.589l-0,-2.945l7.068,0.589Zm55.955,68.324l-1.767,-0l-0,-3.534l2.356,0.589l-0.589,2.945Zm-11.191,24.738l-1.178,-2.945l1.767,-0.589l1.178,3.534l-1.767,-0Zm7.068,8.835l-1.767,-0l-0,-3.534l2.356,0.589l-0.589,2.945Zm-2.356,-10.602c-2.945,14.136 -4.712,26.505 -6.479,37.696c-1.767,1.767 -2.945,3.534 -4.123,5.301l0.589,-20.026c3.534,-8.835 7.068,-16.492 10.013,-22.971Zm9.424,92.473c-2.356,-1.767 -4.123,-2.945 -5.89,-4.123c-1.767,1.767 -3.534,2.945 -4.123,3.534c2.945,-4.123 5.89,-7.068 7.657,-7.657c1.178,3.534 1.767,6.479 2.356,8.246Zm-1.767,4.712l-1.178,-0.589l1.767,-2.945l1.767,0.589l-2.356,2.945Zm-8.246,0.589c-0.589,0.589 -1.767,1.178 -2.356,1.178l0.589,-5.89c1.767,1.767 2.356,3.534 1.767,4.712Zm-187.891,-186.124l-2.356,-0l0.589,-4.712l1.767,0.589l-0,4.123Zm192.014,207.917c-4.123,4.123 -7.657,6.479 -9.424,8.246c-0.589,-9.424 -0.589,-16.492 -1.178,-21.793c1.178,-0 1.767,0.589 2.356,1.178l2.945,-2.356c-0,1.178 0.589,3.534 1.767,6.479c1.767,-1.767 2.356,-2.945 2.945,-3.534c-0,5.301 -0,8.835 0.589,11.78Zm-5.301,17.67l-1.178,-4.123l1.767,-0.589l1.178,5.301l-1.767,-0.589Zm-0.589,12.369l-2.356,-0l0.589,-4.712l2.356,-0l-0.589,4.712Zm-4.712,0.589c-1.178,-0 -2.356,-0.589 -2.945,-1.767c-0,-0.589 1.178,-2.356 3.534,-4.123l-0.589,5.89Zm-7.068,7.068l-1.767,-0.589l1.767,-4.123l1.767,0l-1.767,4.712Zm-2.945,40.641l-1.767,-0.589l2.356,-4.123l1.767,0.589l-2.356,4.123Zm-9.424,-7.068l-2.356,0l0.589,-5.89l2.356,0.589l-0.589,5.301Zm-0,6.479l-1.178,-0.589l1.767,-4.123l1.767,0l-2.356,4.712Zm14.136,24.149l-1.767,-0.589l-0,-2.945l2.356,0l-0.589,3.534Zm-30.628,0l0.589,-1.767l2.945,-1.178l0.589,1.767l-4.123,1.178Zm-7.068,32.984l-2.356,-0.589l1.767,-7.657l2.356,0l-1.767,8.246Zm18.259,17.67l-1.178,-1.178l1.767,-3.534l1.767,0l-2.356,4.712Zm-8.246,-3.534l-1.767,-0.589l2.356,-5.301l1.767,0.589l-2.356,5.301Zm-8.835,-4.123l-1.767,-1.178l1.767,-2.945l1.767,1.178l-1.767,2.945Zm12.369,28.861c-0.589,8.835 -1.767,10.013 -4.123,7.068c-1.767,1.178 -2.356,2.356 -2.356,2.945c-1.178,-0.589 -2.356,-1.178 -2.945,-1.767c-0.589,0.589 -2.945,1.178 -6.479,2.356c1.178,-2.356 2.356,-4.123 2.945,-5.89c2.356,0.589 4.123,1.178 5.89,1.767c1.767,-2.356 4.123,-4.712 7.068,-6.479Zm-278.008,-261.516l-1.767,-1.178l1.767,-2.945l1.767,1.178l-1.767,2.945Zm262.694,267.406l-1.767,-0.589l1.767,-4.123l1.767,0l-1.767,4.712Zm-21.204,-8.835l-0,-1.767l4.123,-1.178l0.589,1.767l-4.712,1.178Zm2.356,9.424c1.178,1.767 1.178,2.945 -0.589,4.712l-2.945,-2.945c1.767,-1.178 2.945,-1.767 3.534,-1.767Zm-7.657,5.301c-2.356,0.589 -4.123,0.589 -5.89,0.589c1.767,-1.767 2.945,-3.534 4.712,-5.301c0.589,1.767 1.178,2.945 1.178,4.712Zm-261.516,-263.872c-4.123,2.945 -7.068,4.712 -10.013,6.479l0.589,-4.123c-0,-2.356 2.945,-5.301 8.835,-8.246l0.589,5.89Zm-15.903,5.301l-1.178,-1.767l1.178,-1.178l1.767,1.767l-1.767,1.178Zm-15.314,4.712c-0,2.356 -0.589,4.123 -2.356,5.301c0.589,-1.767 -0,-2.945 -1.178,-4.123c1.767,-0.589 2.945,-1.178 3.534,-1.178Zm-18.848,8.835l-1.178,-5.89l2.356,0l0.589,5.89l-1.767,0Zm-4.123,-1.767l-1.767,0l-0,-3.534l2.356,0.589l-0.589,2.945Zm-2.356,0l-1.767,-0.589l-0,-2.945l2.356,0l-0.589,3.534Zm5.301,4.712c-0.589,0.589 -4.123,2.356 -4.712,2.945c-0.589,-1.767 -1.178,-3.534 -1.178,-4.123c3.534,0.589 5.301,0.589 5.89,1.178Zm-10.013,-1.767l-0.589,-7.068l1.767,0.589l1.178,7.068l-2.356,-0.589Zm-3.534,1.178l-1.767,-0.589l2.356,-6.479l1.767,0l-2.356,7.068Zm4.712,4.123l-1.767,-0.589l1.767,-2.945l1.767,0.589l-1.767,2.945Zm-8.835,13.547l-1.767,-0.589l2.356,-4.123l1.767,0.589l-2.356,4.123Zm251.503,256.804c-2.945,0 -4.123,0.589 -4.123,1.178l-0,-5.301c-1.178,0 -1.767,0.589 -1.767,2.356c-1.767,-1.767 -3.534,-2.945 -4.123,-4.712c2.945,0.589 5.89,0.589 7.657,1.178c0.589,0.589 1.767,0.589 2.356,1.178l-0,4.123Zm-262.694,-260.927c-1.767,1.178 -2.356,2.945 -2.356,4.712c-0,-1.178 -0.589,-2.356 -1.767,-3.534c1.767,-0.589 3.534,-1.178 4.123,-1.178Zm-18.848,8.835l-1.767,-0.589l1.767,-2.945l1.767,0.589l-1.767,2.945Zm176.111,237.367c-0,2.356 -0.589,3.534 -2.356,2.945c-2.945,0 -6.479,-2.356 -10.013,-7.657l4.712,0.589c3.534,1.178 5.89,2.356 7.657,4.123Zm-11.78,37.107c-2.356,1.178 -4.123,1.767 -5.301,2.356c0.589,-5.89 1.178,-10.013 2.356,-12.958c-0,1.767 1.178,3.534 3.534,5.301l-0.589,5.301Zm-67.735,-48.887l-1.767,-1.767l-1.178,1.178l1.767,1.767l1.178,-1.178Zm-116.033,-110.732c0.589,-2.356 -1.178,-4.712 -4.712,-7.068l0.589,-4.123c2.356,2.356 6.479,5.89 4.123,11.191Zm67.146,67.146c-2.945,0 -4.123,-1.178 -4.123,-3.534c1.767,-0.589 3.534,-0.589 4.712,-0.589l-0.589,4.123Zm-55.955,-51.832c-0,0.589 -1.767,5.301 -1.767,7.068c-4.712,-6.479 -8.246,-12.369 -10.013,-16.492c5.301,4.123 8.835,7.068 11.78,9.424Zm-12.369,-1.178l-2.356,-0.589l0.589,-6.479l2.356,0l-0.589,7.068Zm41.819,40.052c-0.589,0 -1.767,-2.356 -4.123,-2.945c-0,0.589 -0.589,1.767 -1.178,2.356c-3.534,-2.356 -6.479,-4.712 -8.246,-7.068l0.589,-4.123c4.123,7.657 10.602,7.068 13.547,7.068l-0.589,4.712Zm-37.696,-15.314c-2.945,-2.945 -4.123,-5.301 -3.534,-6.479l4.123,0.589l2.356,2.945l-2.945,2.945Zm3.534,5.89l-1.767,1.178l2.356,3.534l1.767,-0.589l-2.356,-4.123Z" style="fill:#fff;fill-rule:nonzero;"/><path d="M1015.9,564.462l-2.945,4.712l1.767,1.178l2.945,-4.712l-1.767,-1.178Zm-4.712,11.191l-2.356,0l0,3.534l2.356,0l0,-3.534Zm-184.946,-45.353l-2.945,3.534l1.178,1.178l2.945,-2.945l-1.178,-1.767Zm192.603,17.67c-0.589,0 -1.178,1.178 -3.534,1.178c-1.767,0 -2.356,-0.589 -1.767,-1.767c1.767,-6.479 1.767,-14.725 -0.589,-24.738c-1.178,-5.301 -2.356,-8.835 -4.123,-11.191c-9.424,-15.314 -17.67,-25.327 -24.738,-30.039c-12.369,-8.246 -21.204,-14.136 -27.094,-18.259c-2.945,-0.589 -5.301,-0.589 -6.479,-0.589c-7.068,-7.068 -12.958,-10.602 -17.67,-10.602c-0.589,0 -2.356,1.178 -4.123,2.945c-2.945,-4.123 -5.89,-5.89 -8.246,-5.89c3.534,0 4.123,1.178 1.767,2.945c-2.945,-1.767 -5.301,-2.945 -7.068,-3.534c0,-1.767 -0.589,-3.534 -1.178,-4.123c0,2.945 -1.178,4.123 -2.945,4.123c-2.356,-2.945 -4.123,-5.301 -4.712,-6.479c-0.589,0.589 -1.767,2.945 -2.356,3.534c-3.534,-5.301 -7.657,-7.657 -12.958,-7.657c-2.356,0 -1.767,2.356 -4.123,2.356c-9.424,-5.301 -14.725,-9.424 -15.903,-13.547c-2.945,-0.589 -4.712,-1.767 -4.712,-2.356c3.534,-1.767 5.301,-2.356 5.89,-2.356c3.534,3.534 5.301,5.301 4.712,5.301c4.123,-5.301 8.246,-9.424 12.369,-12.369c1.178,-2.356 1.767,-4.123 1.767,-5.301c7.657,-4.123 11.78,-7.657 12.958,-10.013c0.589,0.589 1.178,1.767 1.178,2.945c4.123,-5.301 10.602,-10.013 18.848,-13.547c10.013,-4.712 17.081,-8.246 20.026,-11.191c3.534,-2.945 7.068,-7.657 11.191,-15.314c4.123,-7.657 5.89,-12.369 5.89,-14.136l0,-5.89c-0.589,0 -3.534,2.356 -5.89,2.356c-1.767,0 -2.945,-0.589 -4.712,-2.356c1.178,-4.123 1.767,-8.835 1.178,-14.725l-2.945,2.356c-1.178,0 0.589,-8.835 -5.89,-12.958c0.589,3.534 0,5.89 -0.589,6.479c-1.178,-1.178 -1.767,-2.356 -1.767,-2.945c-4.123,-8.246 -7.068,-14.136 -10.013,-17.081c-14.725,-7.657 -25.916,-13.547 -32.395,-16.492c0.589,1.767 0,3.534 -2.945,5.301c-4.123,-4.712 -7.068,-8.246 -9.424,-10.602c0,1.767 -0.589,3.534 -1.178,4.123c-1.767,-1.178 -2.945,-1.178 -4.123,0c-0.589,-1.767 -1.178,-3.534 -1.178,-4.712c-8.835,-2.945 -15.314,-5.301 -19.437,-6.479c1.178,0.589 -1.767,0.589 -8.246,0.589l-2.945,-2.356c0,1.767 -0.589,2.945 -1.178,3.534l0,-1.178c-3.534,-3.534 -7.657,-5.301 -12.369,-5.301c-2.356,0 -2.945,2.945 -5.301,2.945c-1.767,0 0.589,-2.945 -1.767,-2.945c-2.356,0 -5.301,7.657 -7.657,9.424c-1.767,-4.123 -2.945,-7.068 -3.534,-8.835c-1.767,-0.589 -2.945,-0.589 -3.534,-0.589c-0.589,0.589 -4.123,5.301 -5.89,5.301c-1.767,-1.767 -1.767,-2.945 0,-4.712c-6.479,0 -16.492,0 -30.039,-0.589c-14.725,-0.589 -21.793,-1.178 -20.615,-1.178c-2.356,0 -2.945,2.356 -5.301,2.356c-2.356,0 -2.945,-2.356 -5.301,-2.356c-2.356,0 -1.178,2.356 -3.534,2.356c-1.767,0 -15.314,-1.178 -17.67,-1.178c-0.589,0 -4.123,1.178 -9.424,4.123c-5.301,2.356 -8.246,3.534 -9.424,3.534c-2.356,0 -4.123,-2.356 -5.89,-2.356c-0.589,0 -16.492,2.356 -21.793,1.767c-2.945,4.123 -6.479,5.89 -10.602,5.89c-1.767,0 0,-2.356 -2.356,-2.356c-1.767,0 -11.78,2.356 -14.725,1.767c-3.534,2.945 -5.89,4.712 -7.068,4.712c-1.767,0 -0.589,-1.178 -2.945,-1.178c-4.123,0 -4.712,2.945 -5.301,5.301c-0.589,-0.589 0.589,-2.945 -1.767,-2.945c-2.356,0 -3.534,4.123 -5.301,4.123c-2.356,0 -4.712,-1.178 -7.657,-1.178c0,1.767 -0.589,3.534 -2.356,5.301c-1.767,-1.767 -3.534,-2.945 -4.123,-2.945c-0.589,0 -7.068,1.767 -18.848,4.712c1.767,1.767 2.356,3.534 1.767,5.89c-2.945,-0.589 -4.712,-2.356 -4.712,-5.301c-20.026,6.479 -30.039,14.136 -30.039,22.382c0,5.301 1.767,9.424 4.712,12.369c4.712,4.123 9.424,7.657 14.136,11.191c5.301,8.835 16.492,17.081 33.573,24.738c17.081,7.068 30.628,10.602 41.819,10.602l0,-4.712c-1.178,-1.767 -4.123,-5.301 -9.424,-10.013c-4.123,-3.534 -5.89,-5.89 -5.89,-7.068c0,-1.767 2.356,-4.123 7.068,-8.246c19.437,-12.369 32.395,-18.259 40.052,-18.259c4.123,0 6.479,-7.657 9.424,-9.424c0,4.712 0,7.068 -0.589,6.479c4.123,-4.712 8.246,-7.657 12.369,-8.835c1.767,1.767 1.767,2.945 0,4.712c4.123,-1.178 7.657,-2.356 10.013,-2.945c0,-0.589 -4.123,-1.767 -6.479,-4.123c3.534,-2.945 5.301,-4.123 5.301,-4.123c2.356,0 0.589,1.178 2.945,1.178c2.356,0 9.424,-5.301 11.78,-5.89c-1.767,-2.945 -1.767,-5.301 -1.178,-5.89l2.356,1.767l0,10.013c-2.945,0 -4.712,0.589 -5.301,1.178l0,2.356c3.534,1.178 6.479,1.178 8.835,0c0.589,-2.356 -1.767,-9.424 -1.178,-9.424c0.589,0 1.178,0.589 2.356,1.767c2.945,-1.767 5.89,-3.534 10.013,-5.301c0.589,0.589 1.178,1.767 1.178,3.534l-54.188,164.92c0.589,0 -1.178,7.068 -5.301,21.204c-5.301,17.081 -8.246,28.861 -9.424,34.162c-13.547,58.311 -20.615,90.117 -20.615,94.24c0,2.356 6.479,15.314 6.479,17.67c0,2.356 -2.356,5.89 -2.356,7.657l-2.945,-1.178c-9.424,14.725 -15.903,28.272 -19.437,40.052c3.534,1.178 5.301,3.534 5.301,6.479c0,6.479 0,8.246 -0.589,5.89l0,-4.123c4.712,2.356 6.479,5.301 7.068,5.301c0,-1.767 0.589,-2.356 1.767,-2.356c1.767,1.767 2.945,3.534 2.945,4.712c0,0.589 1.178,-0.589 3.534,-3.534c1.767,1.767 -0.589,5.89 0,8.246l-1.767,-1.767c0,-0.589 1.178,-1.178 4.123,-1.178c2.356,4.123 3.534,7.068 3.534,7.657c2.356,-5.301 4.712,-8.246 7.068,-8.835c0.589,6.479 -1.178,11.191 -4.712,14.136c-0.589,-0.589 -1.178,-1.767 -1.178,-2.945c0,1.178 -1.178,1.767 -3.534,1.767c0,0.589 1.767,5.89 1.767,6.479l4.712,0c8.246,-14.725 10.602,-14.725 10.602,-10.602c0,0.589 -2.356,5.89 -7.068,15.903c-0.589,-0.589 -4.712,-3.534 -5.301,-4.123l-3.534,3.534c-0.589,-0.589 1.178,-0.589 4.712,-0.589c0.589,2.356 -1.767,5.89 -1.767,6.479c0,1.767 1.767,4.123 5.301,7.068c-1.767,1.767 -3.534,2.356 -6.479,2.356c3.534,1.767 10.602,5.89 21.793,12.369c9.424,5.301 14.725,8.246 15.903,8.246l9.424,0c2.356,0 5.301,-3.534 7.068,-4.123l2.945,2.945c0,-0.589 1.178,-5.89 1.178,-6.479c-0.589,0 -1.767,-0.589 -3.534,-2.356l2.356,-1.767l3.534,0c1.178,1.767 2.356,2.945 2.945,4.123c4.123,-4.123 10.013,-6.479 17.67,-8.246c10.013,-1.767 17.081,-3.534 20.026,-5.301c0.589,0.589 1.178,2.356 1.178,4.123l4.123,-4.123c0.589,0.589 0.589,1.178 0,2.356c-0.589,0.589 0,0.589 1.178,0.589c1.767,0 2.945,-0.589 3.534,-1.767c-2.945,-1.178 -3.534,-5.89 -1.767,-14.136c-1.767,1.767 -3.534,2.945 -5.301,2.945c-2.356,0 -6.479,-2.356 -7.068,-2.356c-1.767,0.589 -2.356,1.178 -2.945,1.178c1.178,1.767 1.178,3.534 0.589,5.301c-14.136,7.657 -9.424,5.301 -12.958,7.657c-5.301,0 -7.657,-1.767 -7.657,-5.89c0,-2.356 0.589,-2.356 1.178,-2.356l0.589,0.589c-1.767,-6.479 8.835,-10.013 12.958,-11.78c-2.945,0 -4.123,-1.178 -4.123,-4.123c-4.712,1.767 -20.615,10.013 -30.039,5.301l0,-3.534c4.123,-4.123 7.068,-6.479 8.835,-8.246c-1.178,0.589 -4.123,1.178 -9.424,1.178c-1.178,0 -1.178,0.589 -0.589,1.178c1.178,0.589 1.178,1.178 0,1.178c-4.123,0 -12.369,-2.945 -24.149,-8.246c-1.767,-0.589 -2.945,-4.712 -5.301,-4.712c-2.356,0 -0.589,1.178 -2.945,1.178c-1.178,0 -2.356,-1.767 -2.945,-4.712c0,-1.767 0,-3.534 -0.589,-5.301c-2.356,0 -4.123,0.589 -5.301,1.178c-0.589,-0.589 -2.945,-1.767 -3.534,-2.356c0.589,-13.547 1.178,-21.793 0.589,-24.149c0,4.123 -1.178,7.068 -3.534,8.246c-0.589,-5.89 0,-10.602 1.178,-13.547c0.589,0.589 1.178,2.356 1.178,4.123c1.178,-6.479 1.178,-12.958 -0.589,-20.026c2.356,0.589 4.123,-0.589 5.89,-3.534c1.767,4.123 2.356,7.068 2.356,8.835c1.767,0 7.068,-1.178 7.068,-1.178c2.945,-6.479 4.712,-11.78 6.479,-14.725c0.589,-0.589 1.178,-3.534 1.767,-7.657c0.589,-2.945 1.767,-5.89 3.534,-7.657c1.767,1.767 2.356,2.356 2.945,2.356c-0.589,-2.356 0.589,-4.712 2.356,-7.657c0.589,0.589 1.767,1.178 2.945,1.178c0,-1.767 1.178,-7.657 4.123,-17.081c2.356,-3.534 4.712,-5.89 6.479,-7.068c-1.767,-1.767 -2.356,-3.534 -2.945,-5.301c5.301,-4.712 8.835,-8.835 10.602,-11.78c-1.767,0 -4.712,-1.767 -7.068,-1.767c-0.589,0 -3.534,3.534 -8.246,10.602c-0.589,-0.589 -0.589,-2.356 -0.589,-4.123c-1.767,2.356 -2.356,7.657 -2.945,10.602c-2.945,-6.479 -4.712,-8.835 -4.712,-7.068c0,-15.903 2.945,-32.984 8.246,-52.421c3.534,-7.657 6.479,-13.547 8.246,-17.081c2.945,-12.958 4.712,-22.382 5.89,-28.861c0.589,-2.945 7.068,-10.602 7.068,-13.547l0,-7.657c2.945,-11.191 6.479,-17.081 10.602,-17.67c7.068,11.191 12.369,17.081 15.314,17.081c1.767,0 0.589,-2.945 2.945,-2.945c0.589,0 1.767,0.589 3.534,2.356c0,4.712 -1.178,9.424 -1.178,9.424c2.945,-1.767 5.301,-3.534 6.479,-4.712c1.767,4.712 2.356,8.246 2.945,10.013l6.479,-6.479c3.534,3.534 4.712,5.301 4.123,5.301c6.479,-2.945 11.78,-5.301 14.725,-7.068c16.492,-4.712 25.916,-7.068 28.272,-7.068c2.356,0 4.712,2.356 7.068,2.356c2.356,0 10.013,-1.178 11.78,-1.178c2.356,0 17.67,-5.301 20.026,-5.301c1.767,0 8.246,6.479 10.602,6.479c2.356,0 1.767,-1.178 4.123,-1.178c1.767,0 0.589,2.356 2.945,2.356c2.356,0 0.589,-1.178 2.945,-1.178c0.589,0 7.068,2.356 18.259,6.479c11.78,4.123 18.259,6.479 19.437,6.479c2.356,0 4.123,2.945 4.712,2.945c0,-1.178 0,-2.356 0.589,-2.945c5.301,6.479 8.835,9.424 11.191,8.835c2.356,2.945 4.123,5.89 5.89,8.246c0,-2.945 0.589,-4.123 2.356,-4.123c1.767,4.123 3.534,12.958 5.89,15.903c0,-0.589 0,-1.767 0.589,-2.356c2.356,5.301 3.534,11.191 4.123,17.67c2.356,2.945 3.534,4.712 3.534,4.712c0,9.424 -2.945,20.026 -8.246,31.806c-4.123,8.835 -6.479,12.369 -6.479,11.78c0,2.356 1.178,4.123 4.123,5.301c-4.123,5.301 -0.589,2.356 -4.712,2.356c-1.178,0 -2.356,1.178 -2.945,4.123c-1.767,4.123 -2.356,5.89 -2.945,5.89c1.767,-1.178 3.534,-1.178 4.123,-0.589c-2.945,3.534 -5.301,6.479 -5.89,8.835c-1.767,-1.767 -3.534,-2.945 -1.767,4.123c-0.589,1.767 -0.589,2.945 -1.178,3.534c-1.767,-0.589 -2.356,-2.356 -2.356,-5.301c-2.356,2.945 -7.068,10.013 -7.657,10.602c-2.945,3.534 -6.479,6.479 -10.013,8.835c1.178,0 2.356,0.589 4.123,2.356c-2.945,1.767 -5.301,3.534 -5.89,4.712c-0.589,-0.589 -2.356,-1.178 -4.712,-1.178c2.945,3.534 4.712,6.479 6.479,8.246c-1.767,0.589 -1.767,1.178 -1.178,1.767c2.945,-1.767 5.301,-2.945 7.068,-3.534c0.589,0.589 0.589,1.178 0.589,2.945c-8.835,6.479 -13.547,10.602 -14.725,12.369c-0.589,0.589 -1.178,1.178 -0.589,2.945c-2.356,2.356 -4.123,4.123 -4.712,5.301c-0.589,-0.589 -1.178,-2.356 -1.178,-5.301l-4.712,0c4.123,7.657 7.657,13.547 9.424,17.081c3.534,-5.301 6.479,-8.246 9.424,-8.246c3.534,0 5.301,1.178 4.712,2.945c-12.958,6.479 -19.437,9.424 -19.437,9.424c-4.123,10.013 -11.191,15.314 -21.204,15.903c2.356,2.356 3.534,5.89 2.945,10.013c4.712,-3.534 7.657,-6.479 8.246,-8.246c0.589,0 2.356,1.767 4.712,1.767c1.767,0 10.602,-5.89 26.505,-17.67c-0.589,-2.945 -0.589,-4.712 1.178,-5.89l1.178,0c0.589,0.589 1.178,1.767 1.178,2.356c0.589,0 2.356,-2.356 4.123,-6.479l3.534,2.356c2.945,-3.534 8.835,-7.657 16.492,-11.78c0.589,-4.712 8.246,-14.725 8.246,-17.67c0,-0.589 0,-1.178 -0.589,-1.767c-2.945,2.945 -5.301,4.712 -7.068,5.89c1.178,2.945 1.178,5.301 0.589,5.89l-2.356,-2.356c-1.767,0 -5.89,4.712 -8.246,4.712c-1.767,0 -2.945,-0.589 -4.712,-1.767l0,-4.712c2.945,-1.767 5.301,-2.945 7.068,-3.534c0.589,0.589 2.356,2.945 2.945,3.534c1.767,-5.301 3.534,-9.424 4.123,-11.78c0.589,0.589 0.589,2.356 0.589,4.123c15.314,-18.259 25.327,-28.272 29.45,-31.217c0,0 1.767,4.712 4.123,4.712c1.178,-1.767 2.356,-2.945 2.945,-4.123l0,-7.068c-1.767,0 -3.534,-0.589 -4.123,-1.178c7.068,-7.068 12.369,-12.369 15.314,-15.903c1.178,1.767 0.589,4.712 -1.178,7.657c4.123,-7.657 5.89,-12.958 5.89,-16.492c1.767,-1.767 3.534,-2.945 4.712,-3.534c0.589,-4.123 0.589,-7.068 0.589,-9.424c2.945,-5.301 4.712,-8.835 6.479,-11.191Zm-103.664,85.994c0,-2.356 -0.589,-3.534 -1.767,-3.534c-4.123,4.123 -7.068,7.068 -8.835,8.246l0,5.89c2.356,0 10.602,-8.246 10.602,-10.602Zm-104.842,-95.418l-3.534,-0l0,1.767l3.534,-0l0,-1.767Zm-0.589,4.123c-1.767,1.767 -2.945,3.534 -2.945,5.301c1.767,-1.767 2.356,-1.178 2.356,2.356c0.589,-0.589 0.589,-2.945 0.589,-7.657Zm-32.984,23.56l-2.356,-0l0,5.301l2.356,-0l0,-5.301Zm-10.013,-5.301c0,-0.589 -1.178,-1.178 -4.123,-1.178c1.178,2.945 2.356,4.712 2.945,5.301c0,-1.767 0.589,-3.534 1.178,-4.123Zm85.994,114.855l-3.534,3.534l1.178,1.178l3.534,-2.945l-1.178,-1.767Zm-118.389,-105.431l-2.945,5.89l1.767,0.589l2.945,-5.89l-1.767,-0.589Zm7.657,14.136c0,-5.301 -0.589,-8.246 -1.178,-10.013l-2.356,0c-0.589,5.89 -1.178,10.013 -1.178,12.369c1.767,-1.767 2.945,-2.356 4.712,-2.356Zm92.473,100.719l-5.301,4.123l1.178,1.767l5.301,-4.123l-1.178,-1.767Zm-107.198,-97.774l-1.178,4.712l1.767,0.589l1.767,-5.301l-2.356,0Zm176.111,84.227c-2.945,1.178 -5.301,1.178 -7.657,0c3.534,-2.356 5.89,-4.123 7.657,-4.712l0,-5.89c-5.301,-0.589 -6.479,7.068 -9.424,8.835l-2.356,-2.356c0,-0.589 0.589,-1.767 1.178,-2.945c-3.534,0 -5.301,0 -5.301,0.589c2.945,-5.301 4.123,-8.246 4.123,-8.835c1.178,0 1.767,0.589 1.767,1.767c0.589,0.589 0.589,-2.356 0.589,-7.657c-3.534,2.356 -6.479,4.123 -8.246,5.301c-1.767,4.123 -2.356,8.246 -1.767,12.958c-2.945,2.356 -3.534,4.712 -2.356,6.479c-2.356,-1.767 -4.123,-3.534 -4.712,-4.712c1.178,-1.767 1.767,-2.945 1.178,-3.534l-2.945,-2.356c-2.356,6.479 -3.534,10.013 -3.534,10.602l-2.356,-2.356c0,-0.589 1.178,-3.534 1.178,-4.123c-2.945,5.301 -4.123,9.424 -4.123,11.78c-2.945,3.534 -5.301,5.301 -8.246,5.301c-2.945,0 -5.301,-0.589 -5.89,-1.178c0,-0.589 1.178,-3.534 1.178,-4.123c-4.712,8.835 -19.437,14.725 -31.806,20.026c-7.657,4.123 -11.78,5.89 -11.78,5.89c-1.767,0 -2.945,-0.589 -2.945,-1.178c0,14.725 1.178,11.78 -1.767,18.848c-0.589,1.767 -2.356,1.767 -5.301,1.178l0,-7.657c0,-2.356 -1.178,-5.89 -2.945,-10.013c-2.945,3.534 -7.068,5.301 -11.78,5.89c-1.767,2.945 -2.356,4.712 -2.945,5.89c-0.589,-1.178 -3.534,-1.767 -7.657,-2.356c-2.356,0 -7.068,4.712 -7.657,5.301c-1.178,-0.589 -2.356,-1.178 -3.534,-0.589c2.945,4.123 5.301,5.89 7.068,5.89c2.356,0 5.301,-2.945 9.424,-9.424c4.712,4.123 8.246,6.479 11.191,7.068c-1.767,1.767 -2.945,2.945 -2.945,3.534c-2.945,0 -4.712,0.589 -6.479,2.356c2.356,0 4.712,1.767 7.657,4.712c-1.767,0.589 -2.356,2.356 -2.356,5.89c3.534,0 5.301,1.178 5.301,2.945c2.945,-2.945 4.712,-4.123 6.479,-4.123c2.356,0 0.589,1.178 2.356,1.178c4.712,0 8.835,-1.767 12.369,-5.301c1.767,-2.945 2.945,-4.712 2.945,-5.89c4.712,-0.589 7.657,-1.767 8.246,-2.356c0,-0.589 -2.945,-2.945 -4.712,-2.356l-1.767,0c-2.945,2.356 -4.712,4.123 -5.301,5.89l-1.178,-4.712c3.534,-2.945 5.89,-4.712 6.479,-4.712c2.356,0 0.589,1.178 2.945,1.178c2.356,0 7.657,-5.89 8.246,-6.479c1.767,1.767 2.356,2.356 2.945,2.356c-0.589,0 2.356,-1.178 7.657,-3.534c1.767,3.534 2.356,5.301 2.945,5.301c2.945,-2.945 4.123,-4.123 3.534,-4.123c-0.589,0 -0.589,2.356 -0.589,6.479c-1.767,0 -2.945,-0.589 -3.534,-1.178c0,1.767 -0.589,3.534 -1.178,4.123c-1.767,-1.767 -2.945,-2.356 -4.123,-2.945l-4.123,4.712c0.589,0 4.123,-1.767 6.479,-1.767c2.356,0 1.178,2.356 2.945,2.356c-0.589,0 8.246,-5.89 25.327,-17.67c4.123,-1.178 7.657,-1.767 9.424,-1.178c-1.767,-0.589 -2.945,-4.712 -4.712,-5.301l7.657,-7.657l0,-11.191c-1.178,0 -2.356,-0.589 -3.534,-1.767c-5.301,4.123 -10.013,7.068 -15.314,9.424l-2.356,-1.767c12.369,-8.246 21.793,-14.136 27.094,-17.67c2.356,2.356 3.534,3.534 2.945,3.534c0,-1.767 0.589,-3.534 2.356,-5.301c1.767,1.767 3.534,2.945 5.89,2.945c1.767,0 4.123,-1.178 6.479,-3.534Zm-83.638,18.259c-3.534,4.712 -7.657,5.89 -11.78,3.534c0,4.123 -1.767,6.479 -4.712,7.657c-0.589,-1.767 -1.178,-3.534 -0.589,-5.301c-5.301,2.945 -8.835,6.479 -11.78,9.424l5.301,0c1.767,0 7.068,-2.356 15.314,-7.657c6.479,-3.534 11.191,-5.89 14.725,-7.657l-6.479,0Zm9.424,34.751c-0.589,-1.178 -1.178,-1.767 -1.178,-2.356c0,0.589 -1.767,3.534 -1.767,5.301l4.712,0c0.589,-1.178 1.178,-2.945 1.178,-5.301l-2.945,2.356Zm-42.408,-22.382l-1.767,3.534l1.767,0.589l1.767,-3.534l-1.767,-0.589Zm-4.123,4.123c-1.767,0 -2.945,-1.178 -4.712,-1.178c-1.178,0 -5.301,1.178 -11.78,2.945c-6.479,2.356 -10.013,3.534 -11.191,3.534c-1.767,0 -0.589,-1.178 -2.945,-1.178c-1.178,0 -1.767,0.589 -2.356,1.178l0,2.945l-2.945,-2.945c-1.767,1.767 -4.123,2.945 -6.479,2.945l-3.534,2.945c0.589,0.589 1.767,4.123 2.356,4.712c0,-0.589 0.589,-1.178 2.356,-1.178c1.178,0 2.356,0.589 2.945,1.178c0,-1.767 0.589,-3.534 2.356,-5.301c2.356,1.767 4.712,2.356 6.479,2.356c2.356,0 6.479,-7.657 8.835,-7.657c1.767,0 0.589,2.945 2.945,2.945c2.356,0 6.479,-4.712 7.068,-5.301c4.712,-1.767 8.246,-2.356 10.602,-2.945Zm-88.35,-43.586l-2.945,1.767l0,1.767l3.534,-1.767l-0.589,-1.767Zm-27.683,47.709l-2.356,0l0,3.534l2.356,0l0,-3.534Zm-4.123,9.424l-2.356,0l0,4.712l2.356,0l0,-4.712Zm281.542,-389.329c0,1.767 -0.589,3.534 -2.356,4.712c-0.589,-1.178 -1.178,-2.356 -1.767,-2.945c1.767,-1.178 3.534,-1.767 4.123,-1.767Zm-48.298,-26.505l-2.356,0l1.767,-6.479l2.356,0l-1.767,6.479Zm-26.505,-18.259l-1.767,-0.589l1.767,-3.534l1.767,0.589l-1.767,3.534Zm6.479,12.958c0,-2.356 1.178,-4.712 3.534,-6.479c1.178,1.178 1.767,3.534 1.767,6.479l-5.301,0Zm-15.314,-7.657l0,-1.767l2.945,-1.767l0.589,2.356l-3.534,1.178Zm52.421,51.832c-2.945,2.945 -4.712,4.123 -5.301,4.123c0,-2.945 0.589,-5.301 1.767,-6.479c1.178,0.589 2.356,1.767 3.534,2.356Zm-5.301,12.369l-1.767,-0.589l1.178,-3.534l2.356,0.589l-1.767,3.534Zm-84.227,-71.858l-1.767,-1.178l1.767,-2.945l1.767,0.589l-1.767,3.534Zm-5.89,12.369l0,-3.534l2.356,0l0,3.534l-2.356,0Zm-33.573,1.178l0,-3.534l1.767,0l0,3.534l-1.767,0Zm-26.505,-24.149c0,2.356 -1.767,3.534 -4.712,3.534c-1.178,0 -2.356,-0.589 -4.123,-2.356c2.945,0.589 5.89,0 8.835,-1.178Zm180.234,192.014l0,-1.767l4.712,-2.356l0.589,1.767l-5.301,2.356Zm-23.56,-143.127c0,-1.767 -0.589,0.589 -2.356,6.479c-6.479,6.479 -10.602,12.369 -13.547,17.081c-0.589,-0.589 1.178,-0.589 4.712,-0.589c0.589,2.945 1.178,5.89 0.589,8.835c-7.657,1.178 -11.78,4.712 -11.78,10.013c0,1.178 0.589,2.356 1.178,2.945c-4.123,1.767 -15.903,4.712 -20.615,7.068c0,-0.589 1.178,-3.534 1.178,-5.301c-2.945,4.123 -5.301,7.068 -7.068,10.013c-8.835,4.712 -15.903,8.246 -21.204,10.013c-5.89,4.123 -10.602,7.068 -14.136,9.424c-2.945,0.589 -5.301,1.178 -7.657,1.767l2.945,-2.945c-1.767,-1.767 -2.945,-2.356 -4.123,-2.356c0,1.767 -0.589,2.945 -2.356,4.712c0.589,0.589 1.767,1.178 3.534,1.178c-2.356,2.356 -6.479,4.712 -12.958,6.479c-4.123,1.178 -7.657,4.123 -9.424,8.246c2.356,2.356 4.123,3.534 4.712,3.534c0.589,-2.945 0,-4.712 -0.589,-6.479c4.712,0.589 9.424,-1.178 13.547,-5.301l4.712,0c-1.767,4.123 -6.479,7.068 -12.958,9.424c-1.767,2.945 -3.534,5.301 -4.123,7.068l-5.301,0c0.589,-0.589 1.178,-1.767 1.767,-2.945c-2.945,1.767 -10.013,6.479 -12.958,7.068c-1.178,-0.589 -2.356,-1.178 -2.945,-1.178c4.123,-5.301 8.835,-8.246 12.958,-10.013c-3.534,-1.767 -6.479,-2.356 -8.246,-2.945c-2.945,4.712 -21.204,11.78 -24.149,9.424c7.657,-2.945 12.958,-5.89 17.081,-8.246c0,-1.178 -0.589,-2.356 -1.178,-2.945c-11.191,4.712 -20.026,8.246 -26.505,10.602l0,-10.602c0,-1.178 1.767,-5.301 4.712,-12.369c4.123,-8.835 6.479,-14.725 7.657,-18.259c4.123,-14.136 7.657,-25.327 10.013,-32.984c2.356,-6.479 4.123,-10.602 4.712,-12.369c0.589,-1.767 1.178,-9.424 1.178,-22.971c0,-2.945 -0.589,-4.123 -2.356,-4.712c0.589,-0.589 4.123,-2.945 4.712,-3.534c2.356,2.356 4.123,4.712 5.301,6.479c0,-2.356 1.178,-4.123 2.945,-4.712c0.589,0 3.534,-0.589 8.835,-2.356c-1.767,0.589 1.767,0.589 10.602,0.589c0.589,0 1.178,-0.589 1.767,-1.178c0.589,-0.589 0.589,-1.767 0,-2.356c4.123,0 7.068,0.589 7.657,2.356c0.589,-0.589 1.767,-3.534 2.356,-4.123c2.356,2.945 4.123,4.123 4.712,4.123c2.945,0 4.123,-1.178 4.123,-4.123c0.589,1.178 1.178,2.356 1.767,2.945c-0.589,0 0.589,-1.178 3.534,-4.123c2.945,2.945 5.301,4.123 7.068,4.123c2.356,0 4.123,-4.123 5.89,-4.123c2.356,0 -0.589,2.356 1.767,2.356c4.123,-2.356 7.068,-1.767 10.013,4.123l2.945,-11.78c4.123,9.424 9.424,14.136 17.081,14.136c2.356,0 2.356,-1.178 4.712,-1.178c1.767,0 12.958,6.479 14.725,6.479c2.356,0 4.123,-1.178 4.712,-1.178c2.945,5.89 4.123,9.424 4.123,11.191Zm68.324,201.438l0,-1.767l2.945,-1.767l0.589,2.356l-3.534,1.178Zm23.56,32.395c-0,-0.589 2.945,-5.301 2.945,-7.657c1.178,0.589 2.356,1.178 2.945,1.178l-0,5.301l-5.89,1.178Zm-104.253,-103.664c-1.178,0 -2.945,-1.178 -4.712,-2.945c1.767,-2.356 2.945,-3.534 2.945,-3.534c1.178,0 1.767,2.356 1.767,6.479Zm105.431,113.088c-0,-4.123 0.589,-6.479 2.356,-7.657c-0,0.589 1.178,4.123 1.178,4.712l-3.534,2.945Zm-91.884,-94.24l-2.945,-2.945l1.178,-1.767l3.534,3.534l-1.767,1.178Zm-75.981,-42.997l-0,-1.767l3.534,-1.767l0.589,1.767l-4.123,1.767Zm132.525,137.237l-1.767,-0.589l1.178,-3.534l2.356,0.589l-1.767,3.534Zm-262.694,-249.147l0,-3.534l2.356,0l0,3.534l-2.356,0Zm252.092,252.092c-1.767,2.356 -4.123,3.534 -6.479,3.534c0,-1.767 1.767,-3.534 4.712,-6.479c0.589,1.178 1.178,2.356 1.767,2.945Zm3.534,30.628l0,-4.712l2.356,0l0,4.712l-2.356,0Zm-4.123,5.301l0,-3.534l2.356,0l0,3.534l-2.356,0Zm8.246,5.301c-1.767,0.589 -2.945,1.178 -3.534,1.178c0,-0.589 1.767,-4.712 1.767,-5.301c0,0.589 1.767,3.534 1.767,4.123Zm-14.725,-6.479c0,0 -0.589,-1.178 -1.178,-4.123c-0.589,-1.767 -1.767,-1.767 -3.534,-1.178c2.356,-7.657 4.712,-11.78 4.712,5.301Zm-7.068,0.589l-2.356,-1.178l1.767,-4.123l1.767,0l-1.178,5.301Zm4.712,15.903c-0.589,0.589 -4.123,2.945 -4.712,3.534l-0,-12.958c1.767,1.767 2.945,7.657 4.712,9.424Zm-14.136,11.191c-0.589,0 -4.712,1.178 -7.657,1.178c-0,-0.589 1.178,-2.945 1.178,-5.301c-1.767,1.767 -4.123,2.945 -7.657,2.945c-0,0.589 1.178,-2.356 4.123,-7.657c-1.178,0 1.178,0.589 6.479,2.356l-0,-4.123c1.767,4.123 2.945,7.657 3.534,10.602Zm-12.369,22.382c-1.767,-1.178 -2.945,-1.767 -3.534,-1.767c-0,-2.945 1.178,-4.712 3.534,-4.712l2.945,2.945l-2.945,3.534Zm8.246,10.013c-2.356,0 -4.712,-0.589 -6.479,-2.356c0,-1.767 2.356,-4.123 6.479,-6.479l0,8.835Zm-10.602,-6.479c-0.589,0 -4.123,1.178 -4.712,1.178c0.589,-0.589 2.356,-4.123 2.945,-4.712c1.178,1.767 1.767,2.945 1.767,3.534Zm-45.353,21.204l-2.356,-0.589l1.767,-3.534l1.767,1.178l-1.178,2.945Zm-28.272,17.081l-0,-3.534l2.356,0l-0,3.534l-2.356,0Zm15.903,12.958c-5.301,2.945 -8.835,4.123 -10.013,4.123c1.767,-4.712 4.123,-7.068 7.068,-7.657l2.945,3.534Zm-16.492,-12.958c-0,3.534 -2.945,5.89 -8.835,7.657c-5.301,1.767 -8.835,3.534 -10.013,6.479c-0.589,0 -1.767,-0.589 -3.534,-2.356c-1.767,-0.589 -3.534,1.178 -4.123,4.123c-0.589,-6.479 14.725,-11.191 26.505,-15.903Zm-30.628,24.738c-4.123,-2.945 -7.657,-5.301 -10.013,-7.068l5.301,0c-0,-2.945 0.589,-4.123 2.356,-4.123c0.589,0.589 -0,1.178 -1.178,2.945l3.534,3.534l-0,4.712Zm-115.444,-99.541l-0,-4.712l1.767,0l-0,4.712l-1.767,0Zm103.664,107.787c-4.123,3.534 -7.657,6.479 -10.602,8.835l-6.479,-1.767c2.356,-4.123 5.89,-15.903 7.657,-20.026l-0,6.479c-0,3.534 -1.178,6.479 -3.534,8.246l2.356,1.767c4.123,-1.767 7.657,-2.945 10.602,-3.534Zm-18.848,-7.068l-0,-4.712l2.356,0l-0,4.712l-2.356,0Zm14.136,17.67l-1.767,-1.767l1.178,-1.178l1.767,1.767l-1.178,1.178Zm-137.237,-78.926l-0,-6.479l2.356,0l-0,6.479l-2.356,0Zm58.311,63.612c-1.767,0 -2.945,1.178 -2.945,2.945l-4.712,0l-1.178,-5.89l8.835,2.945Zm14.136,25.916l-1.767,-1.178l1.767,-2.945l1.767,0.589l-1.767,3.534Zm-24.738,-25.327c-0.589,0 -2.945,1.178 -3.534,1.178c-0,-1.767 -0.589,-2.945 -2.356,-2.945c0.589,0 3.534,-1.767 4.123,-1.767c1.178,0.589 1.767,1.767 1.767,3.534Zm-58.9,-52.421l-1.767,-0.589l1.767,-3.534l1.767,0.589l-1.767,3.534Zm18.848,6.479c0.589,2.945 -2.356,8.835 -7.657,18.259c1.178,-3.534 0.589,-7.068 -2.356,-11.191c2.356,-1.767 4.123,-2.945 5.301,-3.534c-0.589,-2.945 -2.945,-5.89 -6.479,-9.424c2.945,0 4.712,-0.589 4.712,-1.178c-0,2.945 4.712,7.657 5.301,10.013c0.589,-1.178 1.178,-2.356 1.178,-2.945Zm60.667,56.544c-0,2.356 -2.945,5.301 -8.246,8.835l-4.123,-3.534c-0.589,0.589 -2.945,5.301 -5.89,5.301c-4.123,0 -6.479,0.589 -8.246,1.178c-1.178,-3.534 -2.945,-5.89 -5.89,-7.068c1.178,-1.178 1.767,-2.945 1.767,-4.712c0.589,0 5.301,1.178 7.657,1.178c1.767,0 3.534,-2.356 5.89,-2.356c1.767,0 3.534,1.767 6.479,5.301c-0.589,0 2.945,-1.178 10.602,-4.123Zm-71.858,-61.256c-4.712,7.657 -8.246,12.958 -11.191,16.492c-1.178,0 -1.767,-1.178 -1.767,-2.945c-0,-0.589 3.534,-5.89 11.191,-16.492c0.589,1.178 1.178,2.356 1.767,2.945Zm63.023,80.104l-1.767,-1.767l2.945,-4.123l1.767,1.178l-2.945,4.712Zm-39.463,-36.518c-0,-6.479 3.534,-7.068 3.534,2.945l-3.534,-2.945Zm-0.589,11.191l-1.767,-0.589l2.356,-5.89l1.767,0l-2.356,6.479Zm-13.547,-5.301l-2.945,-2.945l1.178,-1.178l3.534,2.945l-1.767,1.178Zm24.149,25.916l-2.356,-5.89l1.767,-0.589l2.356,6.479l-1.767,0Zm134.292,-356.345l-1.767,3.534l1.767,0.589l1.767,-3.534l-1.767,-0.589Zm-18.259,11.191l-7.657,0l-0,2.356l7.657,0l-0,-2.356Z" style="fill:#fff;fill-rule:nonzero;"/></g></g></g></svg>