<svg viewBox="0 0 1100 1100" xmlns="http://www.w3.org/2000/svg" xml:space="preserve" style="fill-rule:evenodd;clip-rule:evenodd;stroke-linejoin:round;stroke-miterlimit:2"><clipPath id="a"><path d="M550 1050c276.142 0 500-223.858 500-500S826.142 50 550 50 50 273.858 50 550s223.858 500 500 500z"/></clipPath><g clip-path="url(#a)"><path d="M50 50h1000v1000H50z"/></g><path d="M84.101 638.676h-1.767l.589 4.123 1.767.589-.589-4.712zM508.77 333.574v2.356l5.89.589v-2.356l-5.89-.589zm184.946-10.602c.589-2.945-.589-6.479-3.534-10.013-14.725-21.793-23.56-32.395-26.505-32.984-2.356 0-1.767 1.178-3.534 1.178-2.356-.589-2.356-2.945-4.123-2.945.589 0-5.301 2.945-17.67 9.424-1.178-1.178-1.178-2.356.589-3.534-7.068 2.356-12.369 5.301-15.903 9.424-.589.589-1.767 2.945-4.712 7.068-1.767 1.767-3.534 2.945-5.301 2.945-4.712-.589-8.246-1.178-10.602-2.356-1.767 2.945-2.945 5.301-4.712 7.068-.589-1.178-1.178-3.534-1.178-6.479 0-1.767-1.767-2.356-5.301-2.945-2.356.589-3.534 1.767-4.123 2.356-8.835-1.767-16.492-2.945-23.56-4.712-5.301-.589-21.204-.589-47.12 0-.589 1.178-1.767 1.767-2.945 1.767-1.767-.589-2.945-1.767-2.945-2.356 2.945 0-7.068 0-30.628.589-1.767 0-3.534 2.945-5.301 3.534-2.945-1.767-4.712-2.945-6.479-2.945-1.767-.589-13.547 2.945-16.492 2.945-1.178 0-2.945.589-4.712 1.767-2.945 1.767-2.945 1.178-12.958 1.767-5.301.589-8.246.589-9.424.589-1.767-.589-2.945-1.767-2.945-4.123-2.945 2.356-4.712 4.712-5.89 6.479-5.301.589-7.068 3.534-7.068 3.534-3.534-.589-5.89-1.767-7.068-2.356-2.356 0-10.602 6.479-12.958 6.479-1.767-.589-2.356-.589-1.767-1.178.589-1.767 1.178-3.534 1.767-4.712h-2.945c-1.767.589-2.356.589-2.945.589 0 2.356-.589 3.534-1.178 3.534-1.767 0-2.356-1.767-4.712-1.767-1.767 0-8.246 5.301-10.602 5.89 2.356 0 3.534 1.178 3.534 3.534-2.945 2.356-5.89 4.123-8.835 5.301l-1.178 12.369c.589.589 1.767 0 2.356-.589 1.767 6.479 1.767 14.725.589 24.738 0 2.945-2.356 8.835-2.356 11.191 1.767 2.945 2.945 4.123 3.534 4.123l2.356-2.356 1.767 2.356c-2.945 2.356-4.123 5.301-4.123 8.246 2.356 1.178 3.534 2.945 3.534 5.89a22.425 22.425 0 0 1 3.534 2.945c2.945 7.657 4.123 11.78 4.123 11.78-.589 2.945-1.767 5.301-2.945 6.479 5.301 4.123 9.424 10.013 11.191 18.259 15.903 15.903 27.683 28.861 35.34 38.285 9.424-1.767 14.725-5.301 15.314-10.602 0-.589-1.178-4.712-2.945-11.78s-2.356-11.78-2.945-14.725c-1.767-12.369-3.534-21.793-5.301-28.272 0-7.068.589-14.136 4.123-14.136 0-1.767-.589-4.712-1.767-8.835 6.479-7.657 12.369-12.958 17.67-16.492 2.945-1.178 5.301-1.767 6.479-1.767 6.479-4.123 11.191-6.479 12.958-7.068 4.123-1.767 6.479-2.945 5.89-2.945-3.534-4.123-5.301-6.479-5.301-7.068 5.301-2.945 12.958-4.712 38.285-11.191.589-1.767 1.767-3.534 4.123-5.301l5.89 1.767c1.767-2.945 2.945-5.301 4.123-6.479.589 1.178 1.178 1.767.589 2.356-.589 0 2.356-.589 8.835-2.356 6.479-.589 11.78 0 14.725.589 8.835-1.767 12.958-2.356 12.369-2.356.589-1.767.589-2.945 1.178-3.534 1.767 1.767 2.356 2.356 2.356 2.945 0-2.945 1.767-4.123 4.712-3.534 1.767.589 2.945 1.178 2.945 1.767-1.178 1.178-1.178 2.356-.589 2.945.589-1.178 1.178-1.767 1.767-2.356a44.226 44.226 0 0 1 4.712 4.123c2.356.589 2.356-1.767 4.712-1.767 2.945.589 5.89 2.945 8.246 7.068-2.945 1.767-4.712 3.534-6.479 5.301l-.589 4.712c1.767-.589 2.356-.589 2.945-1.178 2.356.589 3.534 2.356 2.945 5.89-2.945 1.767-8.246 8.246-10.602 10.602 1.767-1.178 2.356-1.178 2.356.589 0 1.178-.589 2.356-1.178 3.534-5.89 11.191-10.602 20.026-13.547 25.916l2.945-2.945c1.767 5.301-2.356 10.013-4.712 14.136l2.945-2.356c1.767 1.178 2.945 1.767 3.534 2.356v4.712c-1.767.589-2.945 1.178-3.534 1.767-1.767-1.178-3.534-2.945-4.123-4.712-8.835 26.505-12.958 41.819-12.958 45.942l-1.178 10.013c1.767 0 2.945.589 3.534 1.178-1.767 1.767-3.534 2.945-4.123 3.534-2.945 9.424-4.123 14.725-4.712 15.314 2.945.589 4.123.589 4.123.589.589-2.945 1.767-6.479 3.534-9.424l2.356 2.356-.589 7.068c-2.356 4.712-3.534 1.767-4.123 14.136 0 4.712-.589 8.246-2.356 10.602.589.589.589 4.123 0 10.602-.589 1.767-1.178 3.534-2.356 4.123-2.356 8.835-5.301 13.547-8.835 14.136 0 3.534-.589 5.301-1.178 5.89 2.945-1.767 4.712-3.534 5.301-4.712l1.178 2.356-5.301 10.602c-.589-.589-1.178-1.178-2.356-1.178 1.767 1.767 2.945 3.534 3.534 4.123 1.767-2.945 3.534-4.712 4.123-4.712 1.178 1.767 1.767 2.945 1.767 3.534-.589 2.356-3.534 8.246-4.123 8.835v10.602c3.534-2.356 5.89-4.123 7.068-5.89 1.767 2.945 2.945 4.712 3.534 5.89-1.767.589-4.123 1.178-5.89.589-.589 7.068-6.479 8.246-6.479 8.246-.589 2.356-1.767 5.301-4.712 9.424 2.356-.589 4.123-2.356 5.89-5.301l1.767 5.301c0-.589.589-1.178 1.767-1.178 2.356 0 8.835 2.945 10.602 2.945.589 1.767.589 2.945.589 3.534.589-1.767 1.767-2.356 2.356-2.945 1.767 2.356 2.945 4.123 3.534 5.301h4.123c0-1.767-1.767-4.712-1.767-5.301l3.534-3.534c-1.767-2.356-2.945-4.123-3.534-5.301-.589.589-1.767.589-2.356.589-1.767-.589-2.945-1.767-2.356-2.356-2.356.589-3.534.589-4.123 1.178l1.178-6.479c1.767.589 2.356 1.767 2.945 2.945 2.356 0 3.534-1.178 5.89-1.178 2.356.589 2.356 4.123 2.945 4.123 2.356-4.712 2.945-4.123-1.178-13.547l2.945-2.356c2.945-6.479 4.712-12.958 5.301-20.026.589-.589 1.767-.589 2.356 0-.589-4.123-.589-10.602 1.178-18.259.589-5.301.589-8.835.589-11.78 1.767-3.534 2.945-6.479 4.123-8.246-1.178-1.767-2.356-2.945-3.534-3.534 2.945-.589 4.123-2.945 4.123-5.89v-3.534c-.589-1.767-.589-2.945-.589-3.534 0-2.945 1.178-4.712 3.534-5.89.589 1.178 1.178 2.945.589 5.301 12.958-50.065 20.615-78.337 22.971-84.816 4.123-11.191 10.013-23.56 17.67-37.107 6.479-10.013 11.191-17.081 15.314-22.382 13.547-9.424 20.615-14.136 21.204-13.547 2.945.589 4.712 1.767 5.89 2.945 1.767 0 12.958-5.301 14.725-5.301 2.356.589 11.191 5.89 13.547 6.479 4.123.589 5.89-1.767 6.479-6.479zM536.453 483.18l-4.123 10.602h1.767l4.123-10.013-1.767-.589zm29.45 50.065v2.945l1.767.589.589-3.534h-2.356zm-36.518 31.806-1.767 4.123 1.767.589 1.767-4.712h-1.767zm-2.945-7.657c-2.945 1.767-4.712 4.123-5.301 7.068 0 1.767.589 2.945 1.767 4.712 0-1.767.589-2.356 1.178-2.945-.589-1.178-.589-2.356-.589-2.945.589-2.945 1.178-4.712 2.945-5.89zm-12.958 46.531v2.945h1.767l.589-2.945h-2.356zm23.56 52.421c-.589 1.767-1.767 2.356-2.945 2.945s-1.767 0-2.356-1.178c-1.178 4.123-2.356 7.068-2.945 9.424 3.534-4.712 6.479-8.246 8.246-11.191zm-238.545-229.71c-1.178-.589-2.356-1.178-2.945-1.767s-2.356 4.123-2.945 4.712c2.356-1.178 4.123-2.356 5.89-2.945zm209.684 219.108-1.767 3.534 1.178 1.178 2.356-4.712h-1.767zM269.636 428.992l-7.068 4.712.589 1.767 7.068-4.712-.589-1.767zm5.89 5.89c-4.123 1.767-12.369 4.123-14.136 4.123-1.178 2.356-2.356 4.123-2.945 4.712 1.178.589 2.356.589 2.945 1.178 1.767-2.356 2.945-3.534 2.356-3.534 1.178 1.767 2.356 2.356 4.123 2.356 1.767-2.945 2.945-4.712 4.123-4.123 1.767 1.767 2.945 2.356 3.534 2.356-.589-.589-.589-2.945 0-7.068zm-18.259 5.89c-1.767-.589-2.356-1.178-2.945-1.767-.589 2.945-1.178 5.301-2.356 7.068 2.356-1.767 4.123-3.534 5.301-5.301zM491.1 685.207l-1.767 2.945 1.767.589 1.767-2.945-1.767-.589zM223.694 440.772l-3.534 2.945 1.178 1.178 3.534-2.356-1.178-1.767zm25.916 2.356c-2.356-1.767-3.534-4.123-2.945-8.246-2.945 2.945-4.712 5.301-5.301 7.068-4.123 1.767-6.479 3.534-8.246 5.301-1.178-1.767-1.767-2.945-1.767-3.534 0 4.123-7.657 1.767-5.89 4.712-1.178-1.178-1.767-1.767-1.767-2.356-2.356 0-8.835 4.123-10.602 4.123-2.356-.589-3.534-1.767-3.534-2.356 2.945-1.178 5.89-2.356 7.657-2.945-2.945 0-5.301.589-7.068 1.178-2.945 0-4.712.589-6.479 2.356l-.589 4.123c2.356-1.767 4.123-2.945 5.301-4.123.589 1.767.589 2.945 1.178 3.534-4.123 2.945-7.068 4.712-8.835 5.301-.589-.589-1.178-1.767-1.178-2.945 0 1.767-1.178 2.945-3.534 2.945l-1.767-2.356c.589-2.945 1.178-4.712 1.767-5.301 3.534.589 5.301.589 5.89 0-.589 0-4.712.589-12.369 2.356 1.767 1.767 2.356 3.534 2.356 6.479 0 2.945-.589 4.712-2.356 5.301-1.178-4.712-2.945-7.657-4.712-8.835 0 2.356-.589 3.534-2.356 3.534-2.356-.589.589-2.356-1.767-2.945-1.767.589-2.945 1.767-2.945 2.356-1.767 0-2.945-.589-2.945-1.178.589 4.712-1.178 7.068-4.712 7.657-.589-1.178-1.178-1.767-1.178-2.356-1.178 0-1.767.589-2.356 2.356-.589 2.945-.589 4.123-.589 4.712-4.123-4.123-1.178-7.657-4.712-7.657-7.657 6.479-12.369 9.424-14.136 8.835-6.479 7.657-14.136 11.78-22.971 12.369-5.301 7.068-11.191 12.369-17.081 16.492-1.178 2.945-2.356 4.712-4.123 6.479 3.534-1.767 6.479-2.945 8.246-4.123l2.356-1.767c1.178 1.767 1.767 2.945 2.356 3.534 4.123-2.945 9.424-12.369 11.191-12.958-1.767-.589-2.356-1.178-2.356-2.356l1.767-1.767c2.945 7.657 4.712 11.191 4.712 11.78-1.767 4.712-4.123 8.246-5.89 10.602l2.945 2.945c0-1.767 0-2.945-.589-3.534 2.356 0 4.123 0 4.712.589 1.767 0 2.356-.589 1.767-1.767v-3.534c4.123-1.767 6.479-3.534 8.246-4.712 1.178 1.178 1.767 1.767 1.767 2.356 1.178 0 5.301-2.356 11.78-6.479 2.945-4.123 5.301-7.068 7.068-10.013.589.589 1.178 2.356.589 4.712 2.356-.589 10.013-7.068 11.78-7.068 1.767.589 1.767 1.767 1.178 2.356 2.945 0 8.246-13.547 18.259-12.958 1.767 0 2.356.589 1.767 1.178-.589 1.178-1.178 2.356-2.356 3.534-1.767-.589-2.945-.589-3.534-.589.589 0 1.178 1.178.589 2.945 2.945-1.178 5.301-3.534 7.657-7.657l-3.534-3.534c.589-.589 1.178-.589 1.767-.589 2.356 2.356 4.123 4.123 4.712 5.301 5.301-4.712 14.725-10.013 27.094-15.903.589-3.534 1.178-6.479 2.945-9.424.589.589 1.178 1.178.589 1.767-.589-1.767-1.178 1.767-1.767 9.424 3.534-2.945 5.89-4.712 6.479-4.712 1.767.589 2.945 1.178 2.945 1.767 2.356 0 2.356-5.301 2.945-5.89.589 0 2.945 1.178 3.534 1.178 0-3.534 1.178-5.89 2.945-7.068zm178.467 285.665-1.767.589 1.178 2.945 1.767.589-1.178-4.123zm122.512-125.457c-1.178-2.945-1.767-5.301-1.178-8.246-.589 6.479-1.178 14.136-5.89 14.136-.589 0-1.767 0-2.945-.589 2.945-5.301 3.534-7.068-1.767-2.945-.589-2.356-.589-4.123-.589-4.712-.589-.589-2.356 2.945-2.945-7.068 0-4.123-.589-7.068-1.767-9.424-2.945 5.89-5.89 9.424-8.246 10.602-.589-2.945-1.178-4.712-1.767-6.479.589.589 1.178 1.178.589 1.767-1.767 4.123-3.534 7.657-4.123 9.424-2.356 8.246-4.123 15.314-5.89 21.204l-.589 4.123c4.123-4.123 6.479-8.246 8.246-11.191.589.589 1.178.589 1.178 1.178l-.589 7.657c-4.123 3.534-7.657 5.89-10.602 7.068 1.178-.589 2.945.589 4.712 2.356-1.178 1.178-2.945 1.767-5.89 1.178-.589 4.123-1.178 7.657-1.767 10.602l4.123-4.123 1.767 1.767c-1.178 1.767-2.356 5.89-2.945 11.78-.589 4.123-2.356 7.068-5.301 7.657-1.767-2.945-2.356-5.89-1.767-8.835-.589 5.301-1.178 8.835-1.178 11.191l-2.945-1.767c-1.767 1.767-2.356 2.945-1.767 4.712.589 0 1.767-.589 3.534-2.356.589.589 1.178 1.178.589 1.767-1.178 3.534-2.356 7.068-3.534 10.013-1.767 4.123-4.123 6.479-7.657 6.479 2.945.589 5.301.589 6.479 0 .589.589 1.178 1.178.589 1.767-4.123 8.835-7.657 8.835-15.314 18.259-2.356 2.945-5.301 4.123-9.424 2.945-.589 2.945-.589 5.301-.589 5.89-1.767-.589-2.945-.589-3.534-1.178 2.356 1.767 4.123 2.945 5.89 3.534-2.945 1.767-5.301 4.712-7.657 8.835-.589 2.945-.589 5.301-.589 6.479-2.945-1.178-4.712-2.356-5.89-2.945-1.767 0-4.712 2.945-6.479 2.945-6.479-.589-8.835-.589-7.068-1.178-2.356.589-5.301 4.123-7.657 4.123-1.767-.589-2.356-1.178-2.356-1.767.589 4.123-2.356 7.657-8.835 10.013-.589-.589-1.178-1.767-1.178-3.534-1.178 1.767-2.356 3.534-2.945 4.123-3.534.589-6.479.589-8.246 1.178a2580.308 2580.308 0 0 1-31.806-1.767c-2.356.589-3.534 1.178-3.534 2.356-2.356-1.178-3.534-2.356-4.123-2.945 2.945 2.945 5.301 4.123 7.068 4.712v3.534l-2.356 1.767c-.589-1.767-1.178-2.945-1.178-3.534 1.767 0-4.123-.589-17.67-1.767-2.945.589-4.712 1.178-5.89 1.767-2.945-1.767-4.712-2.945-5.89-4.123-4.123-.589-7.068-.589-8.835-.589 1.178 1.767 1.178 2.945 0 3.534-1.178-.589-2.945-1.178-4.712-1.767-4.123-.589-6.479-1.178-8.246-1.767-3.534-1.178-5.89-2.356-7.657-2.945-11.78-1.178-30.039-5.301-54.777-11.78-1.767-1.767-3.534-2.945-5.301-3.534h-4.123l-.589 6.479c4.123 3.534 7.068 5.89 8.835 7.068 0-2.945 1.178-5.301 2.945-7.068l1.178.589c4.712 1.767 7.657 3.534 8.246 5.301.589 5.301.589 7.068 1.178 5.301-.589 1.767-1.767 2.356-2.356 2.356l-4.712-.589c-1.767-2.356-2.945-3.534-2.945-2.945l2.945-2.945c-2.356 1.767-4.123 2.945-4.712 4.123-2.945-.589-11.78-1.767-14.725-3.534.589 2.356 1.178 4.123 1.767 5.301 4.123 2.945 6.479 4.712 7.068 6.479-4.123.589-15.314 4.123-17.67 4.123-4.123-.589-6.479-.589-5.89-.589 4.123 1.767 7.657 3.534 10.013 4.712 1.767 0 2.356 2.945 4.712 2.945 2.945 0 5.301 1.178 6.479 2.945 1.767-1.767 3.534-2.356 5.301-2.356 1.767 4.712 2.356 7.068 1.767 7.657-2.356-2.945-7.657-4.123-15.314-4.712-1.767-.589-2.945-1.178-2.945-1.767-1.767.589-2.945.589-2.356 1.178-1.767-1.178-2.945-2.356-2.945-2.945-.589 2.356-1.767 3.534-4.712 3.534-1.767 0 0-1.178-1.767-1.767-.589.589-1.178 1.767-1.767 2.356.589 1.767.589 2.356.589 2.945l-4.712-.589c-4.712-1.767-8.246-2.945-11.191-4.123 5.301 5.301 12.958 10.013 22.971 13.547 5.89 1.767 11.78 4.123 18.259 5.89 3.534 1.767 5.89 3.534 7.657 4.712 17.081 1.767 33.573 3.534 48.298 5.301 2.945.589 5.301 1.178 7.068 1.767l1.767 2.356c-.589.589-1.178 1.767-1.178 2.945.589-1.178 2.356-.589 4.123 1.178 0-.589-.589-1.178-1.767-2.945h3.534c2.945 5.89 4.712 10.013 6.479 12.369 1.178-1.178 1.178-2.356 0-4.123l2.356-1.767 1.767 1.767c.589-2.356 1.178-5.89 1.767-5.89 4.123 2.356 7.068 3.534 8.835 4.123 0 4.123-2.945.589-8.246.589-.589 2.945-.589 4.712-1.178 5.301 9.424-.589 16.492-2.356 20.615-4.712 2.356 0 5.301 2.356 7.068 2.356l1.178-.589c2.356 0 5.89-3.534 5.89-3.534 0 2.356 1.178 3.534 4.123 4.123.589-2.945 1.178-5.301 1.767-5.89 7.068 2.945 2.945 8.246 15.314 8.835 2.356 0 8.835-5.301 10.602-5.301 2.356 1.178 3.534 2.356 3.534 2.945l4.123-3.534c1.767 1.178 2.945 1.767 4.123 1.767 8.835.589 21.204-1.178 38.285-6.479 4.123-2.356 6.479-4.123 8.246-5.89 4.123-1.767 7.657-2.945 10.013-3.534 5.89-4.123 10.013-7.657 12.369-10.602-2.356 0-4.123 0-4.712.589l-1.178-2.356c.589-.589.589-1.178.589-1.178 1.767 0 2.945.589 3.534 1.178 1.767-4.123 3.534-7.657 5.301-9.424 4.123-4.123 7.068-7.657 10.013-10.013 4.123-8.835 7.657-17.67 11.78-26.505 6.479-14.136 10.013-24.738 10.602-31.806 0-1.767-1.178-4.123-2.945-5.89-1.767 3.534-3.534 6.479-4.123 8.246-2.356-1.767-4.123-2.945-4.712-4.123 0 2.945-.589 5.301-1.767 5.89-1.178-.589-1.767-1.178-1.767-2.945l-2.945 2.356v-2.945c3.534-4.123 5.89-6.479 7.657-6.479-1.767-2.945-2.945-4.123-3.534-4.123l2.356-1.767c1.178 1.767 2.356 2.356 2.945 2.356v5.301c1.767-2.945 2.356-5.301 2.945-7.068 1.767 1.767 2.945 2.945 3.534 4.123 1.767-1.767 3.534-2.945 5.301-2.356-.589-1.178-1.178-2.356-1.178-3.534 0-2.945 4.123-9.424 4.123-11.78-2.356 4.123-2.945 4.712-3.534 5.301-.589.589-1.767.589-2.356 0-2.356 0-1.767 1.178-4.123 1.178-2.356-1.178-4.123-2.356-4.712-3.534.589-1.767.589-4.123-.589-7.068l2.356-2.945c-2.356 0-3.534 0-4.123.589.589.589.589-1.767.589-8.246-1.767 4.712-3.534 7.657-5.301 8.246l-.589-4.123c1.178-.589 1.767-1.178 2.356-1.178 2.356-7.657 4.123-14.136 5.89-18.259-.589-1.178-.589-1.767-.589-2.356 1.178-1.767 1.767-2.945 2.356-3.534 2.356 5.301 4.123 7.657 4.712 8.246 0-1.178.589-1.767 1.767-1.767 2.356 2.356 3.534 4.123 4.123 4.712a92.134 92.134 0 0 0-3.534 6.479c1.767-1.178 3.534-2.356 4.712-2.945 0-1.178.589-3.534 1.767-6.479 9.424-2.945 14.136-5.89 14.725-15.314 0-2.356-4.123-7.068-4.712-7.068 1.767-1.767 2.356-2.945 2.356-4.123a382.68 382.68 0 0 1-14.725 18.848l-1.767-1.767c0-.589.589-1.178 2.356-1.178-.589 0-.589-1.767 0-5.301-1.767 3.534-3.534 6.479-4.123 8.246-.589-4.712-1.178-8.246-1.178-10.602s7.068-10.013 9.424-10.602v5.89c1.767-.589 6.479-14.136 11.78-14.725.589.589 1.178 2.356 1.178 4.712 2.945-3.534 4.123-7.068 2.945-11.191zm-442.928-86.583-1.767 2.945 1.767 1.178 1.767-2.945-1.767-1.178zm-10.602-2.945-1.767 2.945 1.767.589 1.767-2.945-1.767-.589zm10.602 11.191-2.945 1.178v1.767l3.534-1.178-.589-1.767zm157.263 184.946c-3.534 1.178-6.479 1.767-8.246 2.356 2.945 1.178 5.301 1.767 7.068 1.767.589-1.178.589-2.356 1.178-4.123zm9.424 26.505v4.712h1.767l.589-4.712h-2.356zM69.965 534.423l-3.534 6.479 1.767.589 2.945-6.479-1.178-.589zM255.5 723.492c-4.123-2.945-7.657-4.712-10.013-6.479l-.589 4.712c-1.767.589 1.767 1.178 10.602 1.767zm63.612 70.68-1.178 1.767 2.945 1.767 1.178-1.767-2.945-1.767zm-70.68-68.324c-2.945-1.767-5.301-3.534-8.246-5.89 1.767 4.123 2.945 6.479 4.712 6.479s2.945 0 3.534-.589zm76.57 75.981c-4.123-2.356-7.068-2.945-9.424-2.356.589 1.767 1.178 2.945 1.178 3.534 1.767 0 6.479-1.178 8.246-1.178zm-77.748-95.418c-.589 0-1.178 1.767-3.534 1.767-3.534-1.767-5.89-3.534-7.657-5.301-8.835-1.178-15.903-1.767-20.615-1.767l-2.945-.589c-2.945 0-5.301 0-6.479.589-2.356 0-3.534-1.178-3.534-2.945 0 1.178-.589 1.767-1.767 1.178-2.945 0-5.89-2.356-8.835-6.479 1.178-1.767 1.767-4.123 1.178-5.89l-5.89.589c0 .589 1.178 1.767 3.534 4.123l-4.123.589c-2.945-2.945-4.123-5.301-4.123-7.068.589-2.356.589-4.123 1.178-4.712 0 .589-1.178.589-2.945.589-5.301-.589-5.301-4.712-5.89-7.657-4.712.589-7.657-1.178-9.424-4.712l-3.534 1.767c-.589-1.767-.589-3.534 0-4.712-1.767 2.945-4.712 4.712-9.424 4.123-1.767 0-2.356-2.945-.589-8.835 1.178 1.178 1.767 1.767 2.356 1.767l-3.534-5.301c-7.068-1.767-14.136-7.068-21.204-15.314.589.589.589 1.767-.589 2.356-1.767-2.356-2.356-5.301-2.945-8.835-2.945-3.534-5.301-6.479-5.89-8.835-2.945-2.356-5.89-3.534-7.657-4.123-9.424-13.547-14.725-20.615-16.492-21.793 0 1.767-.589 2.356-1.767 2.356-1.767-.589-2.945-1.178-2.356-1.767-6.479-8.246-11.191-14.136-15.314-18.259 2.945 10.602 4.712 16.492 4.712 18.259 1.767-.589 2.945-1.178 3.534-1.767 4.123 8.835 7.657 15.314 10.602 19.437-2.356.589-4.123 1.178-4.712 1.767-.589-1.178-1.178-1.767-.589-2.356-5.301-.589-4.123-11.78-8.835-14.136-.589 3.534-.589 6.479-.589 8.246-1.767-1.767-2.356-2.356-2.945-2.356l.589-10.013c-1.767-.589-2.945-1.767-3.534-2.356-1.767-.589-2.945-1.767-2.945-2.356 1.767-1.767 2.945-2.945 4.123-3.534L72.91 589.2c-1.178 1.178-1.767 2.945-1.767 4.712 0 2.945 1.178 7.068 4.123 12.369 2.945 6.479 4.123 10.013 4.712 11.191 1.767-1.767 2.356-2.945 2.945-3.534.589 1.178 1.178 1.767 1.178 2.356l-1.767 3.534c2.945 5.301 5.89 9.424 8.835 11.78 0 14.725 0 20.615.589 17.67 2.945 4.712 5.89 8.246 7.657 10.602 4.123 1.178 7.068 2.356 8.835 2.945.589 1.178 1.178 2.356 1.178 2.945 13.547 7.657 23.56 12.958 30.039 15.903l-.589 4.123c-6.479-2.356-11.78-4.712-14.725-7.657-.589.589-2.945 4.123-3.534 4.712 0-7.068-10.602-9.424-17.67-12.369.589 2.356.589 4.123.589 5.89 10.013 0 13.547 6.479 17.67 11.191 5.89 4.123 10.013 5.89 12.369 5.89 2.945 0 4.712 0 5.89-.589 1.178.589 1.178 1.178.589 2.945-.589.589-.589.589-1.178 0s-1.178 0-1.178 1.178c1.767 4.123 3.534 5.89 5.301 5.89 1.767-2.945 2.945-4.712 3.534-6.479 0 1.767-.589-2.945-2.356-13.547-2.945-.589-4.712-1.767-5.89-4.712 1.178-.589 2.356 0 4.123 1.767l1.767-1.767c1.767-3.534 4.123-5.301 5.89-5.89 2.356 1.178 3.534 2.356 4.123 2.945-2.945 2.356-4.712 4.123-6.479 5.89 1.767 2.945 1.767 5.89.589 8.835 1.767-1.767 2.945-2.945 3.534-4.123 3.534.589 6.479.589 8.246 1.178 4.123 4.123 7.657 7.068 9.424 10.013 1.767-.589 2.945-.589 2.945-1.178 4.712 1.767 8.246 4.123 11.191 5.89-1.767-2.945-1.767-4.712 0-5.89 1.178 2.945 2.945 4.712 4.712 5.89 0 1.767-.589 4.123-2.356 6.479l-3.534-.589c-4.123-5.301-7.657-7.657-9.424-7.657l-3.534-.589c1.767 2.945 4.123 6.479 7.068 10.602-1.767.589-4.123 1.178-8.246.589 0 1.178.589 2.945 2.356 4.712 2.945-1.178 6.479-1.178 9.424-.589.589-1.767 1.178-2.945 1.767-3.534 2.945 1.767 5.301 3.534 7.068 4.123l2.945-1.767c2.945 1.178 4.712 2.356 5.89 2.945 1.767-2.945 3.534-4.123 6.479-3.534 0-.589-.589-1.767-1.178-3.534-1.767.589-3.534.589-4.712 1.178-2.356.589-3.534 1.178-4.123 1.767l-2.356-2.356c-1.767-.589-2.945-1.767-2.945-4.123 4.123 0 5.301 2.945 7.657 2.945 2.945-.589 4.123-1.767 4.712-2.945 3.534 1.178 5.89 2.356 7.657 3.534-2.945-1.767-4.123-2.945-4.123-4.712l2.356-2.356c4.712 4.123 8.246 6.479 11.191 7.068 1.178 1.767 1.178 2.945 0 4.123-3.534-2.356-5.301-2.945-5.301-1.178 1.178 1.767 3.534 2.356 7.068 1.767.589-1.178 1.767-1.767 4.123-1.767 4.712.589 7.068 1.178 6.479 1.767.589-1.767 0-2.945-.589-3.534s-1.767-.589-2.945 0c-1.767.589-2.356.589-2.945.589-1.767-1.178-2.945-2.356-2.356-2.945v-3.534l1.178-.589c10.013 2.356 17.081 4.712 21.204 6.479 0-.589 2.945-3.534 2.945-4.123zm-43.586-14.725c-3.534-.589-5.89-1.178-6.479-2.945 1.767 4.123-1.178 7.068 5.89 7.068l.589-4.123zM63.486 553.271l-3.534 5.301 1.767.589 2.945-5.301-1.178-.589zm160.797 167.276v1.767l7.657 3.534.589-1.767-8.246-3.534zM90.58 589.789c-2.356-5.301-3.534-7.657-3.534-6.479.589 4.123 1.178 7.657 1.178 9.424 1.178-1.178 1.767-2.356 2.356-2.945zm157.852 146.072c-2.945-1.178-6.479-2.945-10.013-5.301l-4.123 3.534c-1.767-2.356-3.534-4.123-4.123-5.301-2.945 1.178-5.89 2.356-7.657 2.945-1.767-.589-5.301-4.123-5.89-4.123-.589 0-1.178.589-1.178 2.356 1.767.589 3.534 1.178 4.712 1.767l4.712 5.301c0-1.767.589-2.945 1.178-3.534 1.767 1.767 3.534 2.945 4.123 3.534-.589 1.767-.589 3.534-1.178 4.712 4.123-2.945 6.479-4.712 7.657-6.479 2.945 1.767 4.123 2.945 3.534 4.123 0-1.767 1.178-2.945 2.945-4.712 1.767.589 3.534 1.178 5.301 1.178zm-176.7-162.564c-1.767 4.123-2.945 6.479-4.123 7.068-.589-.589-.589-1.767 0-3.534-1.767 4.123-1.178 7.068.589 9.424 2.356-2.945 3.534-7.657 3.534-12.958zm223.231 224.998c-5.301-1.767-10.013-4.123-14.725-7.068-2.356 1.767-4.123 3.534-4.712 4.712-1.767-1.767-2.356-3.534-2.945-4.123v5.301l-4.712-.589c1.767 1.178 3.534 1.767 5.301 2.356 2.356.589 5.89-4.123 7.657-4.123 5.301 1.178 10.013 2.356 14.136 3.534zm-28.861-20.026c-1.767-.589-5.89-1.767-11.191-4.712l5.301.589c1.767-2.356 2.356-3.534 1.767-3.534-.589 1.767 1.178 4.712 4.123 7.657zm-100.13-83.049c-2.356.589-4.123.589-5.89 1.178 1.767 2.945 3.534 4.712 4.712 5.89.589-2.945 1.178-5.301 1.178-7.068zm-41.23-28.861c0 2.356-1.767 3.534-2.356 4.123 0-1.178-.589-2.356-2.356-4.123h4.712zm381.083-340.442c-1.178 1.178-1.767 2.356-1.767 2.945l-5.301-.589v-2.945l7.068.589zm55.955 68.324h-1.767v-3.534l2.356.589-.589 2.945zm-11.191 24.738-1.178-2.945 1.767-.589 1.178 3.534h-1.767zm7.068 8.835h-1.767v-3.534l2.356.589-.589 2.945zm-2.356-10.602c-2.945 14.136-4.712 26.505-6.479 37.696-1.767 1.767-2.945 3.534-4.123 5.301l.589-20.026c3.534-8.835 7.068-16.492 10.013-22.971zm9.424 92.473c-2.356-1.767-4.123-2.945-5.89-4.123-1.767 1.767-3.534 2.945-4.123 3.534 2.945-4.123 5.89-7.068 7.657-7.657 1.178 3.534 1.767 6.479 2.356 8.246zm-1.767 4.712-1.178-.589 1.767-2.945 1.767.589-2.356 2.945zm-8.246.589c-.589.589-1.767 1.178-2.356 1.178l.589-5.89c1.767 1.767 2.356 3.534 1.767 4.712zM366.821 328.862h-2.356l.589-4.712 1.767.589v4.123zm192.014 207.917c-4.123 4.123-7.657 6.479-9.424 8.246-.589-9.424-.589-16.492-1.178-21.793 1.178 0 1.767.589 2.356 1.178l2.945-2.356c0 1.178.589 3.534 1.767 6.479 1.767-1.767 2.356-2.945 2.945-3.534 0 5.301 0 8.835.589 11.78zm-5.301 17.67-1.178-4.123 1.767-.589 1.178 5.301-1.767-.589zm-.589 12.369h-2.356l.589-4.712h2.356l-.589 4.712zm-4.712.589c-1.178 0-2.356-.589-2.945-1.767 0-.589 1.178-2.356 3.534-4.123l-.589 5.89zm-7.068 7.068-1.767-.589 1.767-4.123h1.767l-1.767 4.712zm-2.945 40.641-1.767-.589 2.356-4.123 1.767.589-2.356 4.123zm-9.424-7.068h-2.356l.589-5.89 2.356.589-.589 5.301zm0 6.479-1.178-.589 1.767-4.123h1.767l-2.356 4.712zm14.136 24.149-1.767-.589v-2.945h2.356l-.589 3.534zm-30.628 0 .589-1.767 2.945-1.178.589 1.767-4.123 1.178zm-7.068 32.984-2.356-.589 1.767-7.657h2.356l-1.767 8.246zm18.259 17.67-1.178-1.178 1.767-3.534h1.767l-2.356 4.712zm-8.246-3.534-1.767-.589 2.356-5.301 1.767.589-2.356 5.301zm-8.835-4.123-1.767-1.178 1.767-2.945 1.767 1.178-1.767 2.945zm12.369 28.861c-.589 8.835-1.767 10.013-4.123 7.068-1.767 1.178-2.356 2.356-2.356 2.945-1.178-.589-2.356-1.178-2.945-1.767-.589.589-2.945 1.178-6.479 2.356 1.178-2.356 2.356-4.123 2.945-5.89 2.356.589 4.123 1.178 5.89 1.767 1.767-2.356 4.123-4.712 7.068-6.479zM240.775 449.018l-1.767-1.178 1.767-2.945 1.767 1.178-1.767 2.945zm262.694 267.406-1.767-.589 1.767-4.123h1.767l-1.767 4.712zm-21.204-8.835v-1.767l4.123-1.178.589 1.767-4.712 1.178zm2.356 9.424c1.178 1.767 1.178 2.945-.589 4.712l-2.945-2.945c1.767-1.178 2.945-1.767 3.534-1.767zm-7.657 5.301c-2.356.589-4.123.589-5.89.589 1.767-1.767 2.945-3.534 4.712-5.301.589 1.767 1.178 2.945 1.178 4.712zM215.448 458.442c-4.123 2.945-7.068 4.712-10.013 6.479l.589-4.123c0-2.356 2.945-5.301 8.835-8.246l.589 5.89zm-15.903 5.301-1.178-1.767 1.178-1.178 1.767 1.767-1.767 1.178zm-15.314 4.712c0 2.356-.589 4.123-2.356 5.301.589-1.767 0-2.945-1.178-4.123 1.767-.589 2.945-1.178 3.534-1.178zm-18.848 8.835-1.178-5.89h2.356l.589 5.89h-1.767zm-4.123-1.767h-1.767v-3.534l2.356.589-.589 2.945zm-2.356 0-1.767-.589v-2.945h2.356l-.589 3.534zm5.301 4.712c-.589.589-4.123 2.356-4.712 2.945-.589-1.767-1.178-3.534-1.178-4.123 3.534.589 5.301.589 5.89 1.178zm-10.013-1.767-.589-7.068 1.767.589 1.178 7.068-2.356-.589zm-3.534 1.178-1.767-.589 2.356-6.479h1.767l-2.356 7.068zm4.712 4.123-1.767-.589 1.767-2.945 1.767.589-1.767 2.945zm-8.835 13.547-1.767-.589 2.356-4.123 1.767.589-2.356 4.123zM398.038 754.12c-2.945 0-4.123.589-4.123 1.178v-5.301c-1.178 0-1.767.589-1.767 2.356-1.767-1.767-3.534-2.945-4.123-4.712 2.945.589 5.89.589 7.657 1.178.589.589 1.767.589 2.356 1.178v4.123zM135.344 493.193c-1.767 1.178-2.356 2.945-2.356 4.712 0-1.178-.589-2.356-1.767-3.534 1.767-.589 3.534-1.178 4.123-1.178zm-18.848 8.835-1.767-.589 1.767-2.945 1.767.589-1.767 2.945zm176.111 237.367c0 2.356-.589 3.534-2.356 2.945-2.945 0-6.479-2.356-10.013-7.657l4.712.589c3.534 1.178 5.89 2.356 7.657 4.123zm-11.78 37.107c-2.356 1.178-4.123 1.767-5.301 2.356.589-5.89 1.178-10.013 2.356-12.958 0 1.767 1.178 3.534 3.534 5.301l-.589 5.301zm-67.735-48.887-1.767-1.767-1.178 1.178 1.767 1.767 1.178-1.178zM97.059 616.883c.589-2.356-1.178-4.712-4.712-7.068l.589-4.123c2.356 2.356 6.479 5.89 4.123 11.191zm67.146 67.146c-2.945 0-4.123-1.178-4.123-3.534 1.767-.589 3.534-.589 4.712-.589l-.589 4.123zm-55.955-51.832c0 .589-1.767 5.301-1.767 7.068-4.712-6.479-8.246-12.369-10.013-16.492 5.301 4.123 8.835 7.068 11.78 9.424zm-12.369-1.178-2.356-.589.589-6.479h2.356l-.589 7.068zm41.819 40.052c-.589 0-1.767-2.356-4.123-2.945 0 .589-.589 1.767-1.178 2.356-3.534-2.356-6.479-4.712-8.246-7.068l.589-4.123c4.123 7.657 10.602 7.068 13.547 7.068l-.589 4.712zm-37.696-15.314c-2.945-2.945-4.123-5.301-3.534-6.479l4.123.589 2.356 2.945-2.945 2.945zm3.534 5.89-1.767 1.178 2.356 3.534 1.767-.589-2.356-4.123z" style="fill:#fff;fill-rule:nonzero"/><path d="m1015.9 564.462-2.945 4.712 1.767 1.178 2.945-4.712-1.767-1.178zm-4.712 11.191h-2.356v3.534h2.356v-3.534zM826.242 530.3l-2.945 3.534 1.178 1.178 2.945-2.945-1.178-1.767zm192.603 17.67c-.589 0-1.178 1.178-3.534 1.178-1.767 0-2.356-.589-1.767-1.767 1.767-6.479 1.767-14.725-.589-24.738-1.178-5.301-2.356-8.835-4.123-11.191-9.424-15.314-17.67-25.327-24.738-30.039-12.369-8.246-21.204-14.136-27.094-18.259-2.945-.589-5.301-.589-6.479-.589-7.068-7.068-12.958-10.602-17.67-10.602-.589 0-2.356 1.178-4.123 2.945-2.945-4.123-5.89-5.89-8.246-5.89 3.534 0 4.123 1.178 1.767 2.945-2.945-1.767-5.301-2.945-7.068-3.534 0-1.767-.589-3.534-1.178-4.123 0 2.945-1.178 4.123-2.945 4.123-2.356-2.945-4.123-5.301-4.712-6.479-.589.589-1.767 2.945-2.356 3.534-3.534-5.301-7.657-7.657-12.958-7.657-2.356 0-1.767 2.356-4.123 2.356-9.424-5.301-14.725-9.424-15.903-13.547-2.945-.589-4.712-1.767-4.712-2.356 3.534-1.767 5.301-2.356 5.89-2.356 3.534 3.534 5.301 5.301 4.712 5.301 4.123-5.301 8.246-9.424 12.369-12.369 1.178-2.356 1.767-4.123 1.767-5.301 7.657-4.123 11.78-7.657 12.958-10.013.589.589 1.178 1.767 1.178 2.945 4.123-5.301 10.602-10.013 18.848-13.547 10.013-4.712 17.081-8.246 20.026-11.191 3.534-2.945 7.068-7.657 11.191-15.314 4.123-7.657 5.89-12.369 5.89-14.136v-5.89c-.589 0-3.534 2.356-5.89 2.356-1.767 0-2.945-.589-4.712-2.356 1.178-4.123 1.767-8.835 1.178-14.725l-2.945 2.356c-1.178 0 .589-8.835-5.89-12.958.589 3.534 0 5.89-.589 6.479-1.178-1.178-1.767-2.356-1.767-2.945-4.123-8.246-7.068-14.136-10.013-17.081-14.725-7.657-25.916-13.547-32.395-16.492.589 1.767 0 3.534-2.945 5.301-4.123-4.712-7.068-8.246-9.424-10.602 0 1.767-.589 3.534-1.178 4.123-1.767-1.178-2.945-1.178-4.123 0-.589-1.767-1.178-3.534-1.178-4.712-8.835-2.945-15.314-5.301-19.437-6.479 1.178.589-1.767.589-8.246.589l-2.945-2.356c0 1.767-.589 2.945-1.178 3.534v-1.178c-3.534-3.534-7.657-5.301-12.369-5.301-2.356 0-2.945 2.945-5.301 2.945-1.767 0 .589-2.945-1.767-2.945s-5.301 7.657-7.657 9.424c-1.767-4.123-2.945-7.068-3.534-8.835-1.767-.589-2.945-.589-3.534-.589-.589.589-4.123 5.301-5.89 5.301-1.767-1.767-1.767-2.945 0-4.712-6.479 0-16.492 0-30.039-.589-14.725-.589-21.793-1.178-20.615-1.178-2.356 0-2.945 2.356-5.301 2.356-2.356 0-2.945-2.356-5.301-2.356-2.356 0-1.178 2.356-3.534 2.356-1.767 0-15.314-1.178-17.67-1.178-.589 0-4.123 1.178-9.424 4.123-5.301 2.356-8.246 3.534-9.424 3.534-2.356 0-4.123-2.356-5.89-2.356-.589 0-16.492 2.356-21.793 1.767-2.945 4.123-6.479 5.89-10.602 5.89-1.767 0 0-2.356-2.356-2.356-1.767 0-11.78 2.356-14.725 1.767-3.534 2.945-5.89 4.712-7.068 4.712-1.767 0-.589-1.178-2.945-1.178-4.123 0-4.712 2.945-5.301 5.301-.589-.589.589-2.945-1.767-2.945s-3.534 4.123-5.301 4.123c-2.356 0-4.712-1.178-7.657-1.178 0 1.767-.589 3.534-2.356 5.301-1.767-1.767-3.534-2.945-4.123-2.945-.589 0-7.068 1.767-18.848 4.712 1.767 1.767 2.356 3.534 1.767 5.89-2.945-.589-4.712-2.356-4.712-5.301-20.026 6.479-30.039 14.136-30.039 22.382 0 5.301 1.767 9.424 4.712 12.369 4.712 4.123 9.424 7.657 14.136 11.191 5.301 8.835 16.492 17.081 33.573 24.738 17.081 7.068 30.628 10.602 41.819 10.602v-4.712c-1.178-1.767-4.123-5.301-9.424-10.013-4.123-3.534-5.89-5.89-5.89-7.068 0-1.767 2.356-4.123 7.068-8.246 19.437-12.369 32.395-18.259 40.052-18.259 4.123 0 6.479-7.657 9.424-9.424 0 4.712 0 7.068-.589 6.479 4.123-4.712 8.246-7.657 12.369-8.835 1.767 1.767 1.767 2.945 0 4.712 4.123-1.178 7.657-2.356 10.013-2.945 0-.589-4.123-1.767-6.479-4.123 3.534-2.945 5.301-4.123 5.301-4.123 2.356 0 .589 1.178 2.945 1.178s9.424-5.301 11.78-5.89c-1.767-2.945-1.767-5.301-1.178-5.89l2.356 1.767v10.013c-2.945 0-4.712.589-5.301 1.178v2.356c3.534 1.178 6.479 1.178 8.835 0 .589-2.356-1.767-9.424-1.178-9.424s1.178.589 2.356 1.767c2.945-1.767 5.89-3.534 10.013-5.301.589.589 1.178 1.767 1.178 3.534l-54.188 164.92c.589 0-1.178 7.068-5.301 21.204-5.301 17.081-8.246 28.861-9.424 34.162-13.547 58.311-20.615 90.117-20.615 94.24 0 2.356 6.479 15.314 6.479 17.67 0 2.356-2.356 5.89-2.356 7.657l-2.945-1.178c-9.424 14.725-15.903 28.272-19.437 40.052 3.534 1.178 5.301 3.534 5.301 6.479 0 6.479 0 8.246-.589 5.89v-4.123c4.712 2.356 6.479 5.301 7.068 5.301 0-1.767.589-2.356 1.767-2.356 1.767 1.767 2.945 3.534 2.945 4.712 0 .589 1.178-.589 3.534-3.534 1.767 1.767-.589 5.89 0 8.246l-1.767-1.767c0-.589 1.178-1.178 4.123-1.178 2.356 4.123 3.534 7.068 3.534 7.657 2.356-5.301 4.712-8.246 7.068-8.835.589 6.479-1.178 11.191-4.712 14.136-.589-.589-1.178-1.767-1.178-2.945 0 1.178-1.178 1.767-3.534 1.767 0 .589 1.767 5.89 1.767 6.479h4.712c8.246-14.725 10.602-14.725 10.602-10.602 0 .589-2.356 5.89-7.068 15.903-.589-.589-4.712-3.534-5.301-4.123l-3.534 3.534c-.589-.589 1.178-.589 4.712-.589.589 2.356-1.767 5.89-1.767 6.479 0 1.767 1.767 4.123 5.301 7.068-1.767 1.767-3.534 2.356-6.479 2.356 3.534 1.767 10.602 5.89 21.793 12.369 9.424 5.301 14.725 8.246 15.903 8.246h9.424c2.356 0 5.301-3.534 7.068-4.123l2.945 2.945c0-.589 1.178-5.89 1.178-6.479-.589 0-1.767-.589-3.534-2.356l2.356-1.767h3.534c1.178 1.767 2.356 2.945 2.945 4.123 4.123-4.123 10.013-6.479 17.67-8.246 10.013-1.767 17.081-3.534 20.026-5.301.589.589 1.178 2.356 1.178 4.123l4.123-4.123c.589.589.589 1.178 0 2.356-.589.589 0 .589 1.178.589 1.767 0 2.945-.589 3.534-1.767-2.945-1.178-3.534-5.89-1.767-14.136-1.767 1.767-3.534 2.945-5.301 2.945-2.356 0-6.479-2.356-7.068-2.356-1.767.589-2.356 1.178-2.945 1.178 1.178 1.767 1.178 3.534.589 5.301-14.136 7.657-9.424 5.301-12.958 7.657-5.301 0-7.657-1.767-7.657-5.89 0-2.356.589-2.356 1.178-2.356l.589.589c-1.767-6.479 8.835-10.013 12.958-11.78-2.945 0-4.123-1.178-4.123-4.123-4.712 1.767-20.615 10.013-30.039 5.301v-3.534c4.123-4.123 7.068-6.479 8.835-8.246-1.178.589-4.123 1.178-9.424 1.178-1.178 0-1.178.589-.589 1.178 1.178.589 1.178 1.178 0 1.178-4.123 0-12.369-2.945-24.149-8.246-1.767-.589-2.945-4.712-5.301-4.712-2.356 0-.589 1.178-2.945 1.178-1.178 0-2.356-1.767-2.945-4.712 0-1.767 0-3.534-.589-5.301-2.356 0-4.123.589-5.301 1.178-.589-.589-2.945-1.767-3.534-2.356.589-13.547 1.178-21.793.589-24.149 0 4.123-1.178 7.068-3.534 8.246-.589-5.89 0-10.602 1.178-13.547.589.589 1.178 2.356 1.178 4.123 1.178-6.479 1.178-12.958-.589-20.026 2.356.589 4.123-.589 5.89-3.534 1.767 4.123 2.356 7.068 2.356 8.835 1.767 0 7.068-1.178 7.068-1.178 2.945-6.479 4.712-11.78 6.479-14.725.589-.589 1.178-3.534 1.767-7.657.589-2.945 1.767-5.89 3.534-7.657 1.767 1.767 2.356 2.356 2.945 2.356-.589-2.356.589-4.712 2.356-7.657.589.589 1.767 1.178 2.945 1.178 0-1.767 1.178-7.657 4.123-17.081 2.356-3.534 4.712-5.89 6.479-7.068-1.767-1.767-2.356-3.534-2.945-5.301 5.301-4.712 8.835-8.835 10.602-11.78-1.767 0-4.712-1.767-7.068-1.767-.589 0-3.534 3.534-8.246 10.602-.589-.589-.589-2.356-.589-4.123-1.767 2.356-2.356 7.657-2.945 10.602-2.945-6.479-4.712-8.835-4.712-7.068 0-15.903 2.945-32.984 8.246-52.421 3.534-7.657 6.479-13.547 8.246-17.081a644.45 644.45 0 0 0 5.89-28.861c.589-2.945 7.068-10.602 7.068-13.547v-7.657c2.945-11.191 6.479-17.081 10.602-17.67 7.068 11.191 12.369 17.081 15.314 17.081 1.767 0 .589-2.945 2.945-2.945.589 0 1.767.589 3.534 2.356 0 4.712-1.178 9.424-1.178 9.424 2.945-1.767 5.301-3.534 6.479-4.712 1.767 4.712 2.356 8.246 2.945 10.013l6.479-6.479c3.534 3.534 4.712 5.301 4.123 5.301 6.479-2.945 11.78-5.301 14.725-7.068 16.492-4.712 25.916-7.068 28.272-7.068 2.356 0 4.712 2.356 7.068 2.356s10.013-1.178 11.78-1.178c2.356 0 17.67-5.301 20.026-5.301 1.767 0 8.246 6.479 10.602 6.479s1.767-1.178 4.123-1.178c1.767 0 .589 2.356 2.945 2.356s.589-1.178 2.945-1.178c.589 0 7.068 2.356 18.259 6.479 11.78 4.123 18.259 6.479 19.437 6.479 2.356 0 4.123 2.945 4.712 2.945 0-1.178 0-2.356.589-2.945 5.301 6.479 8.835 9.424 11.191 8.835 2.356 2.945 4.123 5.89 5.89 8.246 0-2.945.589-4.123 2.356-4.123 1.767 4.123 3.534 12.958 5.89 15.903 0-.589 0-1.767.589-2.356 2.356 5.301 3.534 11.191 4.123 17.67 2.356 2.945 3.534 4.712 3.534 4.712 0 9.424-2.945 20.026-8.246 31.806-4.123 8.835-6.479 12.369-6.479 11.78 0 2.356 1.178 4.123 4.123 5.301-4.123 5.301-.589 2.356-4.712 2.356-1.178 0-2.356 1.178-2.945 4.123-1.767 4.123-2.356 5.89-2.945 5.89 1.767-1.178 3.534-1.178 4.123-.589-2.945 3.534-5.301 6.479-5.89 8.835-1.767-1.767-3.534-2.945-1.767 4.123-.589 1.767-.589 2.945-1.178 3.534-1.767-.589-2.356-2.356-2.356-5.301-2.356 2.945-7.068 10.013-7.657 10.602-2.945 3.534-6.479 6.479-10.013 8.835 1.178 0 2.356.589 4.123 2.356-2.945 1.767-5.301 3.534-5.89 4.712-.589-.589-2.356-1.178-4.712-1.178 2.945 3.534 4.712 6.479 6.479 8.246-1.767.589-1.767 1.178-1.178 1.767 2.945-1.767 5.301-2.945 7.068-3.534.589.589.589 1.178.589 2.945-8.835 6.479-13.547 10.602-14.725 12.369-.589.589-1.178 1.178-.589 2.945-2.356 2.356-4.123 4.123-4.712 5.301-.589-.589-1.178-2.356-1.178-5.301h-4.712c4.123 7.657 7.657 13.547 9.424 17.081 3.534-5.301 6.479-8.246 9.424-8.246 3.534 0 5.301 1.178 4.712 2.945-12.958 6.479-19.437 9.424-19.437 9.424-4.123 10.013-11.191 15.314-21.204 15.903 2.356 2.356 3.534 5.89 2.945 10.013 4.712-3.534 7.657-6.479 8.246-8.246.589 0 2.356 1.767 4.712 1.767 1.767 0 10.602-5.89 26.505-17.67-.589-2.945-.589-4.712 1.178-5.89h1.178c.589.589 1.178 1.767 1.178 2.356.589 0 2.356-2.356 4.123-6.479l3.534 2.356c2.945-3.534 8.835-7.657 16.492-11.78.589-4.712 8.246-14.725 8.246-17.67 0-.589 0-1.178-.589-1.767-2.945 2.945-5.301 4.712-7.068 5.89 1.178 2.945 1.178 5.301.589 5.89l-2.356-2.356c-1.767 0-5.89 4.712-8.246 4.712-1.767 0-2.945-.589-4.712-1.767v-4.712c2.945-1.767 5.301-2.945 7.068-3.534.589.589 2.356 2.945 2.945 3.534 1.767-5.301 3.534-9.424 4.123-11.78.589.589.589 2.356.589 4.123 15.314-18.259 25.327-28.272 29.45-31.217 0 0 1.767 4.712 4.123 4.712 1.178-1.767 2.356-2.945 2.945-4.123v-7.068c-1.767 0-3.534-.589-4.123-1.178 7.068-7.068 12.369-12.369 15.314-15.903 1.178 1.767.589 4.712-1.178 7.657 4.123-7.657 5.89-12.958 5.89-16.492 1.767-1.767 3.534-2.945 4.712-3.534.589-4.123.589-7.068.589-9.424 2.945-5.301 4.712-8.835 6.479-11.191zm-103.664 85.994c0-2.356-.589-3.534-1.767-3.534-4.123 4.123-7.068 7.068-8.835 8.246v5.89c2.356 0 10.602-8.246 10.602-10.602zm-104.842-95.418h-3.534v1.767h3.534v-1.767zm-.589 4.123c-1.767 1.767-2.945 3.534-2.945 5.301 1.767-1.767 2.356-1.178 2.356 2.356.589-.589.589-2.945.589-7.657zm-32.984 23.56h-2.356v5.301h2.356v-5.301zm-10.013-5.301c0-.589-1.178-1.178-4.123-1.178 1.178 2.945 2.356 4.712 2.945 5.301 0-1.767.589-3.534 1.178-4.123zm85.994 114.855-3.534 3.534 1.178 1.178 3.534-2.945-1.178-1.767zM734.358 570.352l-2.945 5.89 1.767.589 2.945-5.89-1.767-.589zm7.657 14.136c0-5.301-.589-8.246-1.178-10.013h-2.356c-.589 5.89-1.178 10.013-1.178 12.369 1.767-1.767 2.945-2.356 4.712-2.356zm92.473 100.719-5.301 4.123 1.178 1.767 5.301-4.123-1.178-1.767zM727.29 587.433l-1.178 4.712 1.767.589 1.767-5.301h-2.356zm176.111 84.227c-2.945 1.178-5.301 1.178-7.657 0 3.534-2.356 5.89-4.123 7.657-4.712v-5.89c-5.301-.589-6.479 7.068-9.424 8.835l-2.356-2.356c0-.589.589-1.767 1.178-2.945-3.534 0-5.301 0-5.301.589 2.945-5.301 4.123-8.246 4.123-8.835 1.178 0 1.767.589 1.767 1.767.589.589.589-2.356.589-7.657-3.534 2.356-6.479 4.123-8.246 5.301-1.767 4.123-2.356 8.246-1.767 12.958-2.945 2.356-3.534 4.712-2.356 6.479-2.356-1.767-4.123-3.534-4.712-4.712 1.178-1.767 1.767-2.945 1.178-3.534l-2.945-2.356c-2.356 6.479-3.534 10.013-3.534 10.602l-2.356-2.356c0-.589 1.178-3.534 1.178-4.123-2.945 5.301-4.123 9.424-4.123 11.78-2.945 3.534-5.301 5.301-8.246 5.301-2.945 0-5.301-.589-5.89-1.178 0-.589 1.178-3.534 1.178-4.123-4.712 8.835-19.437 14.725-31.806 20.026-7.657 4.123-11.78 5.89-11.78 5.89-1.767 0-2.945-.589-2.945-1.178 0 14.725 1.178 11.78-1.767 18.848-.589 1.767-2.356 1.767-5.301 1.178v-7.657c0-2.356-1.178-5.89-2.945-10.013-2.945 3.534-7.068 5.301-11.78 5.89-1.767 2.945-2.356 4.712-2.945 5.89-.589-1.178-3.534-1.767-7.657-2.356-2.356 0-7.068 4.712-7.657 5.301-1.178-.589-2.356-1.178-3.534-.589 2.945 4.123 5.301 5.89 7.068 5.89 2.356 0 5.301-2.945 9.424-9.424 4.712 4.123 8.246 6.479 11.191 7.068-1.767 1.767-2.945 2.945-2.945 3.534-2.945 0-4.712.589-6.479 2.356 2.356 0 4.712 1.767 7.657 4.712-1.767.589-2.356 2.356-2.356 5.89 3.534 0 5.301 1.178 5.301 2.945 2.945-2.945 4.712-4.123 6.479-4.123 2.356 0 .589 1.178 2.356 1.178 4.712 0 8.835-1.767 12.369-5.301 1.767-2.945 2.945-4.712 2.945-5.89 4.712-.589 7.657-1.767 8.246-2.356 0-.589-2.945-2.945-4.712-2.356h-1.767c-2.945 2.356-4.712 4.123-5.301 5.89l-1.178-4.712c3.534-2.945 5.89-4.712 6.479-4.712 2.356 0 .589 1.178 2.945 1.178s7.657-5.89 8.246-6.479c1.767 1.767 2.356 2.356 2.945 2.356-.589 0 2.356-1.178 7.657-3.534 1.767 3.534 2.356 5.301 2.945 5.301 2.945-2.945 4.123-4.123 3.534-4.123-.589 0-.589 2.356-.589 6.479-1.767 0-2.945-.589-3.534-1.178 0 1.767-.589 3.534-1.178 4.123-1.767-1.767-2.945-2.356-4.123-2.945l-4.123 4.712c.589 0 4.123-1.767 6.479-1.767s1.178 2.356 2.945 2.356c-.589 0 8.246-5.89 25.327-17.67 4.123-1.178 7.657-1.767 9.424-1.178-1.767-.589-2.945-4.712-4.712-5.301l7.657-7.657v-11.191c-1.178 0-2.356-.589-3.534-1.767-5.301 4.123-10.013 7.068-15.314 9.424l-2.356-1.767c12.369-8.246 21.793-14.136 27.094-17.67 2.356 2.356 3.534 3.534 2.945 3.534 0-1.767.589-3.534 2.356-5.301 1.767 1.767 3.534 2.945 5.89 2.945 1.767 0 4.123-1.178 6.479-3.534zm-83.638 18.259c-3.534 4.712-7.657 5.89-11.78 3.534 0 4.123-1.767 6.479-4.712 7.657-.589-1.767-1.178-3.534-.589-5.301-5.301 2.945-8.835 6.479-11.78 9.424h5.301c1.767 0 7.068-2.356 15.314-7.657 6.479-3.534 11.191-5.89 14.725-7.657h-6.479zm9.424 34.751c-.589-1.178-1.178-1.767-1.178-2.356 0 .589-1.767 3.534-1.767 5.301h4.712c.589-1.178 1.178-2.945 1.178-5.301l-2.945 2.356zm-42.408-22.382-1.767 3.534 1.767.589 1.767-3.534-1.767-.589zm-4.123 4.123c-1.767 0-2.945-1.178-4.712-1.178-1.178 0-5.301 1.178-11.78 2.945-6.479 2.356-10.013 3.534-11.191 3.534-1.767 0-.589-1.178-2.945-1.178-1.178 0-1.767.589-2.356 1.178v2.945l-2.945-2.945c-1.767 1.767-4.123 2.945-6.479 2.945l-3.534 2.945c.589.589 1.767 4.123 2.356 4.712 0-.589.589-1.178 2.356-1.178 1.178 0 2.356.589 2.945 1.178 0-1.767.589-3.534 2.356-5.301 2.356 1.767 4.712 2.356 6.479 2.356 2.356 0 6.479-7.657 8.835-7.657 1.767 0 .589 2.945 2.945 2.945s6.479-4.712 7.068-5.301c4.712-1.767 8.246-2.356 10.602-2.945zm-88.35-43.586-2.945 1.767v1.767l3.534-1.767-.589-1.767zm-27.683 47.709h-2.356v3.534h2.356v-3.534zm-4.123 9.424h-2.356v4.712h2.356v-4.712zm281.542-389.329c0 1.767-.589 3.534-2.356 4.712-.589-1.178-1.178-2.356-1.767-2.945 1.767-1.178 3.534-1.767 4.123-1.767zm-48.298-26.505h-2.356l1.767-6.479h2.356l-1.767 6.479zm-26.505-18.259-1.767-.589 1.767-3.534 1.767.589-1.767 3.534zm6.479 12.958c0-2.356 1.178-4.712 3.534-6.479 1.178 1.178 1.767 3.534 1.767 6.479h-5.301zm-15.314-7.657v-1.767l2.945-1.767.589 2.356-3.534 1.178zm52.421 51.832c-2.945 2.945-4.712 4.123-5.301 4.123 0-2.945.589-5.301 1.767-6.479 1.178.589 2.356 1.767 3.534 2.356zm-5.301 12.369-1.767-.589 1.178-3.534 2.356.589-1.767 3.534zm-84.227-71.858-1.767-1.178 1.767-2.945 1.767.589-1.767 3.534zm-5.89 12.369v-3.534h2.356v3.534h-2.356zm-33.573 1.178v-3.534h1.767v3.534h-1.767zm-26.505-24.149c0 2.356-1.767 3.534-4.712 3.534-1.178 0-2.356-.589-4.123-2.356 2.945.589 5.89 0 8.835-1.178zm180.234 192.014v-1.767l4.712-2.356.589 1.767-5.301 2.356zm-23.56-143.127c0-1.767-.589.589-2.356 6.479-6.479 6.479-10.602 12.369-13.547 17.081-.589-.589 1.178-.589 4.712-.589.589 2.945 1.178 5.89.589 8.835-7.657 1.178-11.78 4.712-11.78 10.013 0 1.178.589 2.356 1.178 2.945-4.123 1.767-15.903 4.712-20.615 7.068 0-.589 1.178-3.534 1.178-5.301-2.945 4.123-5.301 7.068-7.068 10.013-8.835 4.712-15.903 8.246-21.204 10.013-5.89 4.123-10.602 7.068-14.136 9.424-2.945.589-5.301 1.178-7.657 1.767l2.945-2.945c-1.767-1.767-2.945-2.356-4.123-2.356 0 1.767-.589 2.945-2.356 4.712.589.589 1.767 1.178 3.534 1.178-2.356 2.356-6.479 4.712-12.958 6.479-4.123 1.178-7.657 4.123-9.424 8.246 2.356 2.356 4.123 3.534 4.712 3.534.589-2.945 0-4.712-.589-6.479 4.712.589 9.424-1.178 13.547-5.301h4.712c-1.767 4.123-6.479 7.068-12.958 9.424-1.767 2.945-3.534 5.301-4.123 7.068h-5.301c.589-.589 1.178-1.767 1.767-2.945-2.945 1.767-10.013 6.479-12.958 7.068-1.178-.589-2.356-1.178-2.945-1.178 4.123-5.301 8.835-8.246 12.958-10.013-3.534-1.767-6.479-2.356-8.246-2.945-2.945 4.712-21.204 11.78-24.149 9.424 7.657-2.945 12.958-5.89 17.081-8.246 0-1.178-.589-2.356-1.178-2.945-11.191 4.712-20.026 8.246-26.505 10.602v-10.602c0-1.178 1.767-5.301 4.712-12.369 4.123-8.835 6.479-14.725 7.657-18.259 4.123-14.136 7.657-25.327 10.013-32.984 2.356-6.479 4.123-10.602 4.712-12.369.589-1.767 1.178-9.424 1.178-22.971 0-2.945-.589-4.123-2.356-4.712.589-.589 4.123-2.945 4.712-3.534a42.96 42.96 0 0 1 5.301 6.479c0-2.356 1.178-4.123 2.945-4.712.589 0 3.534-.589 8.835-2.356-1.767.589 1.767.589 10.602.589.589 0 1.178-.589 1.767-1.178s.589-1.767 0-2.356c4.123 0 7.068.589 7.657 2.356.589-.589 1.767-3.534 2.356-4.123 2.356 2.945 4.123 4.123 4.712 4.123 2.945 0 4.123-1.178 4.123-4.123.589 1.178 1.178 2.356 1.767 2.945-.589 0 .589-1.178 3.534-4.123 2.945 2.945 5.301 4.123 7.068 4.123 2.356 0 4.123-4.123 5.89-4.123 2.356 0-.589 2.356 1.767 2.356 4.123-2.356 7.068-1.767 10.013 4.123l2.945-11.78c4.123 9.424 9.424 14.136 17.081 14.136 2.356 0 2.356-1.178 4.712-1.178 1.767 0 12.958 6.479 14.725 6.479 2.356 0 4.123-1.178 4.712-1.178 2.945 5.89 4.123 9.424 4.123 11.191zm68.324 201.438v-1.767l2.945-1.767.589 2.356-3.534 1.178zm23.56 32.395c0-.589 2.945-5.301 2.945-7.657 1.178.589 2.356 1.178 2.945 1.178v5.301l-5.89 1.178zM901.634 451.963c-1.178 0-2.945-1.178-4.712-2.945 1.767-2.356 2.945-3.534 2.945-3.534 1.178 0 1.767 2.356 1.767 6.479zm105.431 113.088c0-4.123.589-6.479 2.356-7.657 0 .589 1.178 4.123 1.178 4.712l-3.534 2.945zm-91.884-94.24-2.945-2.945 1.178-1.767 3.534 3.534-1.767 1.178zM839.2 427.814v-1.767l3.534-1.767.589 1.767-4.123 1.767zm132.525 137.237-1.767-.589 1.178-3.534 2.356.589-1.767 3.534zM709.031 315.904v-3.534h2.356v3.534h-2.356zm252.092 252.092c-1.767 2.356-4.123 3.534-6.479 3.534 0-1.767 1.767-3.534 4.712-6.479.589 1.178 1.178 2.356 1.767 2.945zm3.534 30.628v-4.712h2.356v4.712h-2.356zm-4.123 5.301v-3.534h2.356v3.534h-2.356zm8.246 5.301c-1.767.589-2.945 1.178-3.534 1.178 0-.589 1.767-4.712 1.767-5.301 0 .589 1.767 3.534 1.767 4.123zm-14.725-6.479s-.589-1.178-1.178-4.123c-.589-1.767-1.767-1.767-3.534-1.178 2.356-7.657 4.712-11.78 4.712 5.301zm-7.068.589-2.356-1.178 1.767-4.123h1.767l-1.178 5.301zm4.712 15.903c-.589.589-4.123 2.945-4.712 3.534v-12.958c1.767 1.767 2.945 7.657 4.712 9.424zm-14.136 11.191c-.589 0-4.712 1.178-7.657 1.178 0-.589 1.178-2.945 1.178-5.301-1.767 1.767-4.123 2.945-7.657 2.945 0 .589 1.178-2.356 4.123-7.657-1.178 0 1.178.589 6.479 2.356v-4.123c1.767 4.123 2.945 7.657 3.534 10.602zm-12.369 22.382c-1.767-1.178-2.945-1.767-3.534-1.767 0-2.945 1.178-4.712 3.534-4.712l2.945 2.945-2.945 3.534zm8.246 10.013c-2.356 0-4.712-.589-6.479-2.356 0-1.767 2.356-4.123 6.479-6.479v8.835zm-10.602-6.479c-.589 0-4.123 1.178-4.712 1.178.589-.589 2.356-4.123 2.945-4.712 1.178 1.767 1.767 2.945 1.767 3.534zm-45.353 21.204-2.356-.589 1.767-3.534 1.767 1.178-1.178 2.945zm-28.272 17.081v-3.534h2.356v3.534h-2.356zm15.903 12.958c-5.301 2.945-8.835 4.123-10.013 4.123 1.767-4.712 4.123-7.068 7.068-7.657l2.945 3.534zm-16.492-12.958c0 3.534-2.945 5.89-8.835 7.657-5.301 1.767-8.835 3.534-10.013 6.479-.589 0-1.767-.589-3.534-2.356-1.767-.589-3.534 1.178-4.123 4.123-.589-6.479 14.725-11.191 26.505-15.903zm-30.628 24.738c-4.123-2.945-7.657-5.301-10.013-7.068h5.301c0-2.945.589-4.123 2.356-4.123.589.589 0 1.178-1.178 2.945l3.534 3.534v4.712zm-115.444-99.541v-4.712h1.767v4.712h-1.767zm103.664 107.787c-4.123 3.534-7.657 6.479-10.602 8.835l-6.479-1.767c2.356-4.123 5.89-15.903 7.657-20.026v6.479c0 3.534-1.178 6.479-3.534 8.246l2.356 1.767c4.123-1.767 7.657-2.945 10.602-3.534zm-18.848-7.068v-4.712h2.356v4.712h-2.356zm14.136 17.67-1.767-1.767 1.178-1.178 1.767 1.767-1.178 1.178zm-137.237-78.926v-6.479h2.356v6.479h-2.356zm58.311 63.612c-1.767 0-2.945 1.178-2.945 2.945h-4.712l-1.178-5.89 8.835 2.945zm14.136 25.916-1.767-1.178 1.767-2.945 1.767.589-1.767 3.534zm-24.738-25.327c-.589 0-2.945 1.178-3.534 1.178 0-1.767-.589-2.945-2.356-2.945.589 0 3.534-1.767 4.123-1.767 1.178.589 1.767 1.767 1.767 3.534zm-58.9-52.421-1.767-.589 1.767-3.534 1.767.589-1.767 3.534zm18.848 6.479c.589 2.945-2.356 8.835-7.657 18.259 1.178-3.534.589-7.068-2.356-11.191 2.356-1.767 4.123-2.945 5.301-3.534-.589-2.945-2.945-5.89-6.479-9.424 2.945 0 4.712-.589 4.712-1.178 0 2.945 4.712 7.657 5.301 10.013.589-1.178 1.178-2.356 1.178-2.945zm60.667 56.544c0 2.356-2.945 5.301-8.246 8.835l-4.123-3.534c-.589.589-2.945 5.301-5.89 5.301-4.123 0-6.479.589-8.246 1.178-1.178-3.534-2.945-5.89-5.89-7.068 1.178-1.178 1.767-2.945 1.767-4.712.589 0 5.301 1.178 7.657 1.178 1.767 0 3.534-2.356 5.89-2.356 1.767 0 3.534 1.767 6.479 5.301-.589 0 2.945-1.178 10.602-4.123zm-71.858-61.256c-4.712 7.657-8.246 12.958-11.191 16.492-1.178 0-1.767-1.178-1.767-2.945 0-.589 3.534-5.89 11.191-16.492.589 1.178 1.178 2.356 1.767 2.945zm63.023 80.104-1.767-1.767 2.945-4.123 1.767 1.178-2.945 4.712zm-39.463-36.518c0-6.479 3.534-7.068 3.534 2.945l-3.534-2.945zm-.589 11.191-1.767-.589 2.356-5.89h1.767l-2.356 6.479zm-13.547-5.301-2.945-2.945 1.178-1.178 3.534 2.945-1.767 1.178zm24.149 25.916-2.356-5.89 1.767-.589 2.356 6.479h-1.767zm134.292-356.345-1.767 3.534 1.767.589 1.767-3.534-1.767-.589zm-18.259 11.191h-7.657v2.356h7.657v-2.356z" style="fill:#fff;fill-rule:nonzero"/></svg>